<svg viewBox="127.00537634408599 32.99999999999994 321.9892473118278 567.1499999999996" xmlns="http://www.w3.org/2000/svg" xmlns:xlink="http://www.w3.org/1999/xlink" xmlns:blush="http://design.blush" overflow="visible" width="321.9892473118278px" height="567.1499999999996px"><g id="Master/Hands/Show" stroke="none" stroke-width="1" fill="none" fill-rule="evenodd" blush:has-customizable-skin="true" blush:i="0"><g id="base" transform="translate(129.000000, 231.000000)" fill-rule="nonzero" blush:i="0.0"><path d="M310.609959,9.73160067 C297.518652,-1.31298337 277.455714,-1.53867658 260.738587,7.01973985 C259.533228,7.63906618 258.291358,8.29865939 256.963581,9.02283418 C252.599533,2.95193894 242.682004,1.64339405 234.058125,3.92661327 C230.601947,4.84598941 226.474104,6.37613643 221.455128,8.52170954 C220.066861,9.11518274 218.616241,9.75313758 217.041205,10.4605457 C214.952661,11.398589 208.08862,14.5578589 206.86978,15.105928 C201.209867,17.646029 195.468121,20.2780867 187.218162,24.0987215 C186.422626,24.4671422 185.590245,24.8528459 184.636268,25.2950704 C172.811435,30.7765749 172.367288,30.9821275 168.006299,32.9820497 C155.344225,38.7887977 137.342044,47.9709996 124.69275,55.0550119 C121.15447,57.0435232 115.203998,60.4785378 107.510495,64.9619547 L107.206671,65.1390263 C102.726372,67.7504422 97.9450475,70.5481671 93.1761861,73.3458615 C91.5071248,74.325031 89.9588202,75.2342676 88.5704751,76.0502693 C88.2693078,76.2272808 88.0443691,76.3595138 87.7941559,76.5066425 C85.7760117,75.4254299 81.7589649,73.272491 80.4198429,72.5558976 C76.9648311,70.7070454 74.0898074,69.1752984 71.3108748,67.705243 C70.4426092,67.2459305 69.5939415,66.7980848 68.7618301,66.3601528 C60.9649002,62.2567056 54.5564672,58.9894562 49.2549147,56.4466912 C36.1515113,50.1550569 30.8117615,48.0208051 23.7887604,46.9915195 C19.3303885,46.3381039 15.0851385,46.5017509 10.894951,47.5722367 C1.07437074,50.0776073 -2.54062966,61.7433516 3.31417388,71.7407048 C6.79042182,77.6677084 11.1500855,82.5235555 19.8515236,90.9356907 C19.9126189,90.9947548 22.4370893,93.4307099 23.1573009,94.1293526 C24.4009214,95.3357289 25.4145459,96.3314847 26.3656202,97.2848852 C27.2871546,98.2086735 28.1292848,99.0725438 28.9178365,99.9052168 C29.7107379,100.745698 34.1859045,105.451031 35.4768234,106.824544 C47.7124057,119.842976 54.0350548,128.630393 57.0015909,138.695426 C61.6940772,154.635113 62.83,170.727974 62.83,201.29 C62.83,209.552992 63.0329336,229.330286 63.3821568,257.13481 C63.4231896,260.401763 63.4659165,263.75229 63.510167,267.175848 C63.6589258,278.684965 63.8183089,340.519161 63.977692,352.022084 C64.033476,356.048105 64.0852756,359.745154 64.1317626,363.031182 C64.1480333,364.181307 64.1624778,365.197907 64.1749301,366.070728 C64.1875488,366.953836 64.1875488,366.953836 64.1902066,367.138744 C64.2059201,368.231991 65.0966393,369.11 66.19,369.11 L239.52,369.11 C240.63577,369.11 241.535772,368.197018 241.519795,367.081362 C241.508682,366.305353 241.508682,366.305353 241.458652,362.813339 C241.410005,359.418327 241.355779,355.635314 241.297356,351.5613 C241.130436,339.921258 240.963331,278.281216 240.80711,267.417171 L240.802665,267.108049 C240.522184,247.603377 240.308905,232.834175 240.189786,224.690748 C240.050643,216.240476 239.777116,207.383182 239.36491,197.376812 C239.048122,189.686727 238.744086,183.285772 238.076597,169.856069 C237.274657,153.721269 236.944088,146.711414 236.614695,138.194523 C236.930154,137.912463 237.282257,137.597196 237.66855,137.250796 C239.065464,135.998146 240.621832,134.59645 242.297844,133.079389 C247.086936,128.744489 251.876257,124.352832 256.347902,120.173277 C256.889963,119.666624 257.424688,119.165555 257.951714,118.670377 C265.846248,111.252913 271.662769,105.49363 274.694925,101.975758 C276.638424,99.7204121 278.761316,97.3714524 281.28547,94.6661576 C282.463651,93.4034273 283.700642,92.0929882 285.261199,90.4511467 C285.930228,89.7472712 288.627553,86.9159269 289.304889,86.2033179 C302.687636,72.1236546 309.443343,63.8996061 314.882231,53.7658025 C318.20524,47.6066041 317.675119,40.0933687 313.439649,35.4591569 C320.01127,27.4081065 318.249219,16.1790884 310.609959,9.73160067 Z" id="Path" fill="#b17606" blush:skin="500" blush:i="0.0.0"/><path d="M136.32094,157.996921 C137.07164,157.955215 137.618688,157.911293 139.069805,157.784269 C139.93989,157.708106 140.391759,157.670568 140.90336,157.63417 C143.251332,157.467124 144.895078,157.506102 146.315509,157.822234 C147.393698,158.062197 148.462271,157.38268 148.702234,156.304491 C148.942197,155.226302 148.26268,154.157729 147.184491,153.917766 C145.302826,153.498981 143.321744,153.452004 140.619497,153.644255 C140.079752,153.682656 139.611914,153.721519 138.720996,153.799506 C137.314572,153.922619 136.791703,153.964599 136.09906,154.003079 C134.996191,154.06435 134.151809,155.008071 134.213079,156.11094 C134.27435,157.213809 135.218071,158.058191 136.32094,157.996921 Z" id="Path" fill="#744b15" blush:skin="600" blush:i="0.0.1"/><path d="M130.386331,82.3448742 C137.662351,80.6002714 146.613686,82.1775773 155.400965,87.3809208 C163.415834,92.1268854 168.088961,98.748953 171.679681,108.228454 C172.07095,109.261403 173.225506,109.781587 174.258454,109.390319 C175.291403,108.99905 175.811587,107.844494 175.420319,106.811546 C171.537025,96.5596499 166.357639,89.2201863 157.439035,83.9390792 C147.78591,78.2230298 137.777084,76.4593845 129.453669,78.4551258 C128.379545,78.7126733 127.717578,79.7922066 127.975126,80.8663309 C128.232673,81.9404552 129.312207,82.6024216 130.386331,82.3448742 Z" id="Path" fill="#744b15" blush:skin="600" blush:i="0.0.2"/><path d="M182,47.8 C205.099702,47.8 230.213388,55.526056 249.499412,68.4033079 C250.418031,69.016669 251.659947,68.7692081 252.273308,67.8505885 C252.886669,66.9319689 252.639208,65.6900532 251.720588,65.0766921 C231.781675,51.7635063 205.896152,43.8 182,43.8 C180.895431,43.8 180,44.6954305 180,45.8 C180,46.9045695 180.895431,47.8 182,47.8 Z" id="Path" fill="#744b15" blush:skin="600" blush:i="0.0.3"/><path d="M222.800926,54.3454161 C224.521351,53.2688403 226.245019,52.1687545 227.979267,51.0414005 C238.304886,44.3291981 267.342757,23.4132611 268.70739,22.4814981 C282.02917,13.3854729 291.192171,8.89071837 299.825053,7.82493047 C300.9213,7.68959135 301.70027,6.69119368 301.56493,5.59494686 C301.429591,4.49870003 300.431194,3.71973042 299.334947,3.85506953 C289.902554,5.01956248 280.262163,9.74849265 266.451844,19.1780891 C265.013743,20.1600148 236.027568,41.0387153 225.799188,47.6877077 C224.083947,48.8027061 222.379666,49.8904187 220.679074,50.9545839 C219.742721,51.5405173 219.458651,52.7745737 220.044584,53.7109262 C220.630517,54.6472786 221.864574,54.9313494 222.800926,54.3454161 Z" id="Path" fill="#744b15" blush:skin="600" blush:i="0.0.4"/><path d="M199.076816,48.1443582 C199.982699,47.4936405 200.822316,46.8899802 202.25866,45.8569054 C215.193664,36.5535458 220.735068,32.6307351 228.279085,27.5376036 C241.235485,18.7910527 246.170735,15.6999663 255.380343,10.8604411 C256.358131,10.3466269 256.734255,9.13744461 256.220441,8.15965697 C255.706627,7.18186933 254.497445,6.80574459 253.519657,7.31955886 C244.148988,12.2437195 239.109905,15.3998391 226.040968,24.2223608 C218.453299,29.3449626 212.890028,33.2832537 199.923069,42.6095966 C198.487338,43.6422303 197.648238,44.2455189 196.743184,44.8956418 C195.846075,45.5400568 195.641227,46.7897082 196.285642,47.6868164 C196.930057,48.5839247 198.179708,48.7887731 199.076816,48.1443582 Z" id="Path" fill="#744b15" blush:skin="600" blush:i="0.0.5"/><path d="M310.21544,34.8035628 C311.167338,35.3638886 312.393237,35.0464571 312.953563,34.0945597 C313.513889,33.1426623 313.196457,31.9167631 312.24456,31.3564372 C308.901404,29.3885186 305.129145,28.2647075 301.254084,28.0822142 L301.126107,28.0802872 C298.022598,28.1328891 294.667083,29.1868831 290.915905,31.1061423 C288.334342,32.4269774 285.700231,34.0738002 282.404873,36.3469768 C282.303125,36.4171636 276.362331,40.6011918 274.916422,41.545459 C259.675024,51.5175253 252.649647,56.0294396 243.799334,61.4220733 C242.856072,61.9968175 242.557329,63.2274045 243.132073,64.1706664 C243.706817,65.1139282 244.937404,65.4126708 245.880666,64.8379267 C254.778978,59.4160467 261.830067,54.8876194 277.105002,44.8936103 C278.61877,43.9050275 284.627762,39.6729687 284.676154,39.639587 C287.840062,37.4570864 290.341707,35.8930802 292.737847,34.667115 C295.964565,33.0161916 298.749921,32.1357325 301.131164,32.0809661 C304.334223,32.2423601 307.451044,33.176326 310.21544,34.8035628 Z" id="Path" fill="#744b15" blush:skin="600" blush:i="0.0.6"/></g><g id="Show/Wear" blush:width="600" blush:height="600" blush:component="Show/Wear" blush:i="0.1" transform="scale(1 1)"><g id="Show/Wear/Bracelet" stroke="none" stroke-width="1" fill="none" fill-rule="evenodd" blush:i="0.1.0"><g id="clothing" transform="translate(181.000000, 450.000000)" fill-rule="nonzero" blush:i="0.1.0.0"><path d="M195.65,24.62 C201.9,23.06 205.53,15.88 204.44,10.62 C203.35,5.36 199.68,1.42 194.5,0.62 C186.72,-0.59 180.17,6.38 180.8,13.97 C181.092047,17.4749386 182.907014,20.6753111 185.765077,22.7250332 C188.62314,24.7747553 192.23654,25.4674539 195.65,24.62 Z" id="Path" fill="#F97560" blush:i="0.1.0.0.0"/><path d="M185.342665,16.2605173 C183.949641,18.3228155 181.309788,20.3277082 177.956492,22.0257147 C176.971059,22.5247081 176.576721,23.728074 177.075715,24.7135075 C177.574708,25.6989411 178.778074,26.0932788 179.763508,25.5942853 C183.669671,23.6163234 186.814203,21.2281418 188.657335,18.4994827 C189.275608,17.584162 189.034803,16.3409385 188.119483,15.7226653 C187.204162,15.104392 185.960938,15.3451966 185.342665,16.2605173 Z" id="Path" fill="#0B0B0A" blush:i="0.1.0.0.1"/><path d="M160.26,21.63 C156.8,27.05 159.1,34.77 163.54,37.86 C167.98,40.95 173.33,41.26 177.64,38.28 C184.12,33.81 184.08,24.28 178.4,19.18 C175.780608,16.8206124 172.256247,15.7323793 168.762641,16.204228 C165.269035,16.6760767 162.159638,18.6602692 160.26,21.63 L160.26,21.63 Z" id="Path" fill="#F97560" blush:i="0.1.0.0.2"/><path d="M161.898589,30.5633138 C161.472381,30.7203379 161.452733,30.7286203 158.499682,31.9838465 L158.44591,32.0067004 C156.610092,32.786865 155.577446,33.2127805 155.255415,33.3167697 C154.20429,33.6561955 153.627344,34.7834597 153.96677,35.8345848 C154.306196,36.8857098 155.43346,37.4626561 156.484585,37.1232303 C156.982238,36.9625297 157.972698,36.5540139 160.010374,35.6880661 L160.064434,35.6650896 C162.794088,34.5048206 162.955881,34.4366181 163.281411,34.3166862 C164.317876,33.9348306 164.848542,32.7850545 164.466686,31.7485893 C164.084831,30.7121241 162.935054,30.1814582 161.898589,30.5633138 Z" id="Path" fill="#0B0B0A" blush:i="0.1.0.0.3"/><path d="M133.67,29.79 C130.21,35.22 132.51,42.93 136.95,46.03 C141.39,49.13 146.74,49.43 151.05,46.45 C157.53,41.97 157.49,32.45 151.81,27.34 C149.190608,24.9806124 145.666247,23.8923793 142.172641,24.364228 C138.679035,24.8360767 135.569638,26.8202692 133.67,29.79 Z" id="Path" fill="#F97560" blush:i="0.1.0.0.4"/><path d="M134.652062,37.4334804 C132.484593,37.5615165 130.222697,37.6283941 127.643194,37.6500706 C126.538663,37.6593524 125.650789,38.5622756 125.659998,39.6668061 C125.669352,40.7713366 126.572276,41.6592112 127.676806,41.6499294 C130.319332,41.6277233 132.646821,41.5589063 134.887938,41.4265196 C135.990585,41.3613844 136.831655,40.4147095 136.76652,39.3120621 C136.701384,38.2094148 135.754709,37.3683451 134.652062,37.4334804 Z" id="Path" fill="#0B0B0A" blush:i="0.1.0.0.5"/><path d="M105.13,34.1 C103.765088,37.54528 104.031778,41.4230612 105.855499,44.6490465 C107.67922,47.8750319 110.864251,50.1030106 114.52,50.71 C117.50945,51.2122546 120.57414,50.4677663 123,48.65 C123.741302,48.194832 124.431883,47.6618105 125.06,47.06 C130.39,41.96 129.31,32.43 123.12,28.48 C120.05674,26.5246931 116.28648,26.0215699 112.817688,27.1052058 C109.348896,28.1888418 106.53549,30.7486746 105.13,34.1 Z" id="Path" fill="#F97560" blush:i="0.1.0.0.6"/><path d="M7.00002382,7.27023807 C6.98015504,11.3408548 8.1720227,15.3253185 10.4238974,18.7163915 C11.0349406,19.6365546 12.2762284,19.8871457 13.1963915,19.2761026 C14.1165546,18.6650594 14.3671457,17.4237716 13.7561026,16.5036085 C11.9434038,13.7738857 10.9839823,10.5664993 10.9999762,7.28976193 C11.0053675,6.18520559 10.1143183,5.28541519 9.00976193,5.27999949 C7.90520559,5.27463246 7.00541519,6.16568172 7.00002382,7.27023807 Z" id="Path" fill="#0B0B0A" blush:i="0.1.0.0.7"/><path d="M1.55,15.62 C0.185290234,19.0680301 0.453168299,22.9482891 2.27875048,26.1760737 C4.10433265,29.4038584 7.29175773,31.6328694 10.95,32.24 C13.937628,32.7377738 16.9987351,31.9896638 19.42,30.17 C20.1628742,29.7209743 20.8537497,29.1910796 21.48,28.59 C26.81,23.48 25.73,13.96 19.55,10.01 C16.4864756,8.05402834 12.7160173,7.54938322 9.24595147,8.63088706 C5.77588568,9.7123909 2.95978248,12.2698477 1.55,15.62 L1.55,15.62 Z" id="Path" fill="#F97560" blush:i="0.1.0.0.8"/><path d="M18.9755728,26.8688544 C21.2831356,28.0226358 23.7070678,29.0973982 26.2825197,30.119065 C27.3092529,30.5263642 28.4717659,30.0242136 28.879065,28.9974803 C29.2863642,27.9707471 28.7842136,26.8082341 27.7574803,26.400935 C25.2848687,25.4200643 22.9651978,24.3915309 20.7644272,23.2911456 C19.7764702,22.7971671 18.5751241,23.1976158 18.0811456,24.1855728 C17.5871671,25.1735298 17.9876158,26.3748759 18.9755728,26.8688544 Z" id="Path" fill="#0B0B0A" blush:i="0.1.0.0.9"/><path d="M26,25.49 C22.53,30.92 24.84,38.63 29.27,41.73 C33.7,44.83 39.06,45.13 43.37,42.15 C49.85,37.67 49.81,28.15 44.13,23.04 C41.51092,20.6842663 37.989035,19.5983105 34.4981157,20.0700564 C31.0071964,20.5418022 27.8998723,22.523597 26,25.49 Z" id="Path" fill="#F97560" blush:i="0.1.0.0.10"/><path d="M45.8514117,35.8778191 C48.0994928,36.3469838 50.431836,36.782724 52.8684451,37.1923264 C53.9577309,37.3754391 54.9892137,36.6408407 55.1723264,35.5515549 C55.3554391,34.4622691 54.6208407,33.4307863 53.5315549,33.2476736 C51.1447329,32.8464406 48.863487,32.4202467 46.6685883,31.9621809 C45.5873147,31.7365238 44.527838,32.430138 44.3021809,33.5114117 C44.0765238,34.5926853 44.770138,35.652162 45.8514117,35.8778191 Z" id="Path" fill="#0B0B0A" blush:i="0.1.0.0.11"/><path d="M62.54,24.4 C56.11,24.23 51.54,29.08 49.98,34.77 C48.42,40.46 54.06,49.9 61.9,49.47 C68.57,49.1 74.29,43.68 74.23,36.87 C74.17,30.4 69.18,24.57 62.54,24.4 Z" id="Path" fill="#F97560" blush:i="0.1.0.0.12"/><path d="M72.3504007,39.6619197 C75.2973435,39.9276277 77.5567172,40.1132354 79.7943133,40.265392 C80.8963379,40.3403296 81.8504543,39.5077112 81.925392,38.4056867 C82.0003296,37.3036621 81.1677112,36.3495457 80.0656867,36.274608 C77.8623424,36.1247806 75.6297934,35.9413765 72.7095993,35.6780803 C71.6094924,35.5788903 70.6372703,36.3902938 70.5380803,37.4904007 C70.4388903,38.5905076 71.2502938,39.5627297 72.3504007,39.6619197 Z" id="Path" fill="#0B0B0A" blush:i="0.1.0.0.13"/><path d="M107.376076,38.2207863 L99.1760755,37.9907863 C98.0719403,37.9598166 97.1517559,38.8297892 97.1207863,39.9339245 C97.0898166,41.0380597 97.9597892,41.9582441 99.0639245,41.9892137 L107.263924,42.2192137 C108.36806,42.2501834 109.288244,41.3802108 109.319214,40.2760755 C109.350183,39.1719403 108.480211,38.2517559 107.376076,38.2207863 Z" id="Path" fill="#0B0B0A" blush:i="0.1.0.0.14"/><path d="M78.41,32.19 C74.94,37.62 77.25,45.33 81.69,48.43 C86.13,51.53 91.48,51.83 95.78,48.85 C102.26,44.37 102.22,34.85 96.54,29.74 C93.92092,27.3842663 90.399035,26.2983105 86.9081157,26.7700564 C83.4171964,27.2418022 80.3098723,29.223597 78.41,32.19 L78.41,32.19 Z" id="Path" fill="#F97560" blush:i="0.1.0.0.15"/></g></g></g><g id="Show/Item" blush:width="600" blush:height="600" blush:component="Show/Item" blush:i="0.2" transform="scale(1 1)"><g id="Show/Item/Lightbulb" stroke="none" stroke-width="1" fill="none" fill-rule="evenodd" blush:i="0.2.0"><g id="items" transform="translate(178.000000, 32.000000)" fill-rule="nonzero" blush:i="0.2.0.0"><path d="M115.388372,216.954388 C117.338162,223.71278 122.501507,228.60963 128.903406,228.052468 C135.163314,227.511786 140.451415,221.47625 140.379877,215.037779 C140.367604,213.933278 139.46228,213.047851 138.357779,213.059997 C137.253278,213.072396 136.367851,213.97772 136.380123,215.082221 C136.428738,219.457533 132.703456,223.709357 128.557896,224.067419 C124.369033,224.431978 120.706755,220.958721 119.231628,215.845612 C118.925448,214.784326 117.816898,214.172192 116.755612,214.478372 C115.694326,214.784552 115.082192,215.893102 115.388372,216.954388 Z" id="Path" fill="#80AAB1" blush:i="0.2.0.0.0"/><path d="M134.858158,171.77 L109,171.77 C107.961668,171.77 107.096028,172.564585 107.007313,173.599121 C105.994039,185.415301 106.405861,197.310471 108.233902,209.028282 C109.346463,215.704306 115.810236,218.106538 123.688255,216.959118 C125.419576,216.708878 126.8057,216.597765 129.993177,216.4104 C135.709474,216.074387 138.290274,215.747638 141.540464,214.668029 C145.446094,213.368013 147.803267,210.737764 148.877458,206.960875 C149.644256,204.264791 149.745029,201.700777 149.558673,196.587162 C149.439913,193.226646 149.41735,189.043395 149.459634,183.14399 C149.469103,181.822798 149.479995,180.596029 149.499908,178.519175 C149.547682,173.536564 149.56,171.937769 149.56,169.81 C149.56,168.4553 148.241512,167.492512 146.951118,167.904938 L134.858158,171.77 Z" id="Path" fill="#80AAB1" blush:i="0.2.0.0.1"/><path d="M146.508502,177.290663 C139.355215,177.474914 130.947302,180.359626 123.463234,185.267545 C116.189098,190.037795 110.931249,194.87942 108.169125,199.251851 C107.579203,200.185696 107.858007,201.420953 108.791851,202.010875 C109.725696,202.600797 110.960953,202.321993 111.550875,201.388149 C113.964816,197.566889 118.820638,193.095467 125.656766,188.612455 C132.54677,184.094112 140.243633,181.453358 146.611498,181.289337 C147.715701,181.260895 148.587778,180.342705 148.559337,179.238502 C148.530895,178.134299 147.612705,177.262222 146.508502,177.290663 Z" id="Path" fill="#5F8083" blush:i="0.2.0.0.2"/><path d="M113.390542,212.985147 C118.2763,204.353065 136.288159,193.75747 147.817617,191.842984 C148.907266,191.662046 149.643922,190.632032 149.462984,189.542383 C149.282046,188.452734 148.252032,187.716078 147.162383,187.897016 C134.53228,189.994265 115.455403,201.216365 109.909458,211.014853 C109.365377,211.976128 109.703579,213.19646 110.664853,213.740542 C111.626128,214.284623 112.84646,213.946421 113.390542,212.985147 Z" id="Path" fill="#5F8083" blush:i="0.2.0.0.3"/><path d="M124.445613,215.285827 C128.945254,209.331671 139.753678,203.178727 147.942172,201.278215 C149.018141,201.028487 149.687942,199.953797 149.438215,198.877828 C149.188487,197.801859 148.113797,197.132058 147.037828,197.381785 C138.001713,199.479027 126.375682,206.097412 121.254387,212.874173 C120.588427,213.755405 120.76294,215.009653 121.644173,215.675613 C122.525405,216.341573 123.779653,216.16706 124.445613,215.285827 Z" id="Path" fill="#5F8083" blush:i="0.2.0.0.4"/><path d="M117.745957,178.471098 C114.196197,180.19584 108.857604,185.360503 106.847608,188.620304 C106.267877,189.560509 106.560099,190.792661 107.500304,191.372392 C108.440509,191.952123 109.672661,191.659901 110.252392,190.719696 C111.884912,188.072083 116.673855,183.439163 119.494043,182.068902 C120.487549,181.586182 120.901623,180.389463 120.418902,179.395957 C119.936182,178.402451 118.739463,177.988377 117.745957,178.471098 Z" id="Path" fill="#5F8083" blush:i="0.2.0.0.5"/><path d="M66.3583673,144.238401 C55.8051452,122.344093 58.4752084,90.2120241 72.5570503,71.473943 C91.0570436,46.6803442 136.514893,40.4018427 164.040053,57.2316999 C180.958462,67.5320254 192.516018,91.0811949 192.309911,112.548847 C192.127049,131.95255 182.723912,149.928002 166.726931,162.167161 C152.298699,173.229781 125.23558,178.021693 105.454044,174.112407 C88.3389231,170.762522 74.1687911,160.415742 66.3583673,144.238401 Z M106.224104,170.18723 L106.227807,170.187959 C124.948612,173.888218 150.846336,169.302911 164.294713,158.99158 C179.335349,147.484112 188.139105,130.654464 188.310092,112.510799 C188.503339,92.3825869 177.602738,70.1719996 161.956697,60.6463175 C136.117696,44.8474417 92.9686541,50.8070577 75.7588416,73.871543 C62.5854169,91.4008519 60.0481708,121.934574 69.9610739,142.500441 C77.205629,157.505726 90.3080685,167.072546 106.224104,170.18723 Z" id="Path" fill="#FCD400" blush:i="0.2.0.0.6"/><path d="M103.971992,109.433252 C98.6889759,105.006638 92.9929036,103.789923 87.8978457,107.068054 C80.5840259,111.777107 83.6295949,121.992987 91.0314034,125.980728 C96.7660077,129.06537 103.953136,129.017086 110.479877,126.729214 C112.555596,133.105107 113.987437,139.673637 114.753068,146.338259 C114.922044,147.936887 115.076989,150.188267 115.214427,152.90382 C115.320341,154.996517 115.409875,157.241511 115.483365,159.4869 C115.509096,160.273096 115.530978,161.003042 115.549064,161.657875 C115.559897,162.050101 115.567046,162.329609 115.570566,162.477562 C115.596833,163.581819 116.513305,164.455702 117.617562,164.429434 C118.721819,164.403167 119.595702,163.486695 119.569434,162.382438 C119.565797,162.229539 119.558519,161.944949 119.547539,161.547438 C119.529272,160.886042 119.507187,160.149333 119.481224,159.356054 C119.407014,157.088659 119.316571,154.820869 119.209313,152.701634 C119.068489,149.919157 118.909171,147.604249 118.72891,145.89967 C117.917607,138.836866 116.391581,131.891442 114.174535,125.158344 C117.764409,123.3496 120.995136,120.846243 123.45509,117.822306 C124.168891,118.444383 124.915186,119.001343 125.685352,119.479329 C129.054487,121.599628 134.210276,122.871696 139.620884,123.067914 C139.528621,123.425319 139.438456,123.787686 139.350292,124.155026 C138.763767,126.598816 138.630421,127.303886 137.621117,132.958575 C137.149756,135.592992 136.81114,138.353888 136.553111,141.473056 C136.356396,143.85103 136.248043,145.703747 136.030594,150.002478 C135.767495,155.203643 135.617169,157.549397 135.320855,160.381912 C135.205931,161.480486 136.003337,162.464221 137.101912,162.579145 C138.200486,162.694069 139.184221,161.896663 139.299145,160.798088 C139.605386,157.870695 139.758776,155.477129 140.025486,150.204558 C140.240763,145.948768 140.34749,144.123856 140.539495,141.802824 C140.787819,138.800977 141.111505,136.161801 141.558735,133.662254 C142.550506,128.105794 142.679969,127.421259 143.239836,125.08854 C143.412138,124.370634 143.59194,123.67609 143.77994,123.004669 C144.424947,122.961204 145.068052,122.901804 145.706702,122.826092 C154.18835,121.820591 160.673933,118.185097 162.880166,112.101891 C164.570818,107.439062 162.980101,104.254219 159.034461,103.883758 C156.55448,103.650909 153.193225,104.631006 150.542923,106.114915 C145.933008,108.699914 142.916785,112.997481 140.808738,119.092296 C135.678725,119.051044 130.743046,117.936113 127.805252,116.087299 C127.084164,115.639767 126.387918,115.096594 125.728011,114.479732 C125.901221,114.168491 126.066613,113.853316 126.22386,113.534345 C127.417837,111.111015 128.833741,107.48249 129.640019,104.264886 C130.963325,98.9839776 130.717466,95.0776852 127.745216,93.2072756 C124.721423,91.297509 120.340791,92.7989526 118.171908,95.5385941 C114.09393,100.672046 116.140032,109.062125 120.684306,114.880695 C118.64753,117.524946 115.893383,119.737883 112.810855,121.360647 C111.049098,117.215464 107.693565,112.551542 103.971992,109.433252 Z M152.498199,109.604456 C154.501783,108.482645 157.113799,107.721017 158.660539,107.866242 C159.782292,107.971565 159.979655,108.366715 159.119776,110.738267 C157.531713,115.117004 152.375107,118.007541 145.235798,118.853908 C145.21217,118.856709 145.188536,118.859485 145.164894,118.862235 C146.922715,114.46944 149.260439,111.420022 152.498199,109.604456 Z M121.306012,98.0240283 C122.340984,96.7167 124.590373,95.9457311 125.612014,96.5909778 C127.528415,97.7969538 125.761793,105.153239 122.942864,111.129376 C120.065112,106.721533 118.862894,101.099483 121.306012,98.0240283 Z M92.9274322,122.458645 C90.7145705,121.26646 88.7304614,118.842072 88.0016409,116.397359 C87.2547018,113.89187 87.8814746,111.835992 90.0627045,110.431592 C93.4465798,108.254426 97.3259235,109.083077 101.403008,112.499248 C104.645691,115.216276 107.634631,119.387071 109.143448,122.957587 C103.627745,124.8881 97.6041765,124.974263 92.9274322,122.458645 Z" id="Path" fill="#FCD400" blush:i="0.2.0.0.7"/><path d="M2.29888927,125.689402 L14.1588893,125.399402 C15.2631287,125.372402 16.1364032,124.45535 16.1094024,123.351111 C16.0824016,122.246871 15.1653502,121.373597 14.0611107,121.400598 L2.20111073,121.690598 C1.0968713,121.717598 0.223596834,122.63465 0.250597629,123.738889 C0.277598425,124.843129 1.19464983,125.716403 2.29888927,125.689402 Z" id="Path" fill="#FCD400" blush:i="0.2.0.0.8"/><path d="M17.6203136,36.1515295 L24.2103136,41.8615295 C25.0451083,42.5848494 26.3082097,42.4944811 27.0315295,41.6596864 C27.7548494,40.8248917 27.6644811,39.5617903 26.8296864,38.8384705 L20.2396864,33.1284705 C19.4048917,32.4051506 18.1417903,32.4955189 17.4184705,33.3303136 C16.6951506,34.1651083 16.7855189,35.4282097 17.6203136,36.1515295 Z" id="Path" fill="#FCD400" blush:i="0.2.0.0.9"/><path d="M185.718878,1.2805414 L179.568878,14.0205414 C179.088689,15.0152738 179.505809,16.2109336 180.500541,16.6911224 C181.495274,17.1713111 182.690934,16.754191 183.171122,15.7594586 L189.321122,3.0194586 C189.801311,2.02472618 189.384191,0.829066364 188.389459,0.348877641 C187.394726,-0.131311082 186.199066,0.285808993 185.718878,1.2805414 Z" id="Path" fill="#FCD400" blush:i="0.2.0.0.10"/><path d="M218.0206,17.1758994 L204.8506,25.9558994 C203.931542,26.5686043 203.683194,27.810343 204.295899,28.7294004 C204.908604,29.6484578 206.150343,29.8968055 207.0694,29.2841006 L220.2394,20.5041006 C221.158458,19.8913957 221.406806,18.649657 220.794101,17.7305996 C220.181396,16.8115422 218.939657,16.5631945 218.0206,17.1758994 Z" id="Path" fill="#FCD400" blush:i="0.2.0.0.11"/><path d="M225.724326,146.595032 L240.134326,150.045032 C241.208538,150.302216 242.287847,149.639885 242.545032,148.565674 C242.802216,147.491462 242.139885,146.412153 241.065674,146.154968 L226.655674,142.704968 C225.581462,142.447784 224.502153,143.110115 224.244968,144.184326 C223.987784,145.258538 224.650115,146.337847 225.724326,146.595032 Z" id="Path" fill="#FCD400" blush:i="0.2.0.0.12"/></g></g></g></g></svg>