<svg viewBox="36.82361963190186 51.00000000000006 535.3527607361964 548.9999999999997" xmlns="http://www.w3.org/2000/svg" xmlns:xlink="http://www.w3.org/1999/xlink" xmlns:blush="http://design.blush" overflow="visible" width="535.3527607361964px" height="548.9999999999997px"><g id="Master/Spot Illustrations/Phone" stroke="none" stroke-width="1" fill="none" fill-rule="evenodd" blush:i="0"><g id="Background" style="mix-blend-mode:soft-light" blush:width="600" blush:height="600" blush:component="Background" blush:i="0.0" transform="scale(1 1)"><g id="Background/Clouds" stroke="none" stroke-width="1" fill="none" fill-rule="evenodd" blush:i="0.0.0"><path d="M289.1,249.49 C292.57,239.61 295.26,216.68 285.74,208.49 C280.79,204.2 273.01,202.75 264.42,204.49 C258.80232,205.581075 253.530218,208.009604 249.05,211.57 C255.74,180.99 264.55,126 223.85,114.1 C208.21,109.53 189.08,114.57 172.68,127.59 C159.32,138.2 150.34,152.09 147.68,165.59 C141.707567,152.047563 129.88605,141.967428 115.57,138.21 C98.9928832,133.721688 81.3072181,139.073571 70,152 C52.51,171.57 54.16,201.41 74.86,240.84 C74.0567827,240.655239 73.2413629,240.528247 72.42,240.46 C60.28,239.34 45.32,249.29 40.42,261.74 C37.91,268.1 35.9,280.48 50.71,292.04 C57.3,297.19 66.71,298.54 76.32,298.54 C82.04,298.54 87.82,298.06 93.12,297.62 C96.01,297.39 98.75,297.16 101.19,297.04 C122.39,295.99 207.4,287.84 220.11,286.56 C234.42,285.13 278.13,280.71 289.1,249.49 Z" id="Path" fill="#EAF3F3" fill-rule="nonzero" blush:i="0.0.0.0"/><path d="M566.65,394 C561.38,384.13 553.78,378.93 544.05,378.55 C538.312421,378.480656 532.628182,379.657764 527.39,382 C528.39,380.19 529.24,378.35 530.06,376.5 C534.2,367.1 538.11,353.32 533.19,341.09 C529.42,331.7 523.27,326.24 514.93,324.86 C491.93,321.05 456.74,350.29 434.15,372.16 C455.91,340.58 486.15,289.52 474.39,268.62 C469.91,260.62 460.02,257.83 444.99,260.28 C420.78,264.23 393.53,286.87 376.11,306.74 C367.41,316.66 336.44,358.2 324.9,373.74 C324.382244,369.629722 322.998453,365.676034 320.84,362.14 C316.71,355.14 310.71,350.58 304.84,349.85 C289.33,347.95 275.09,357.85 263.67,378.52 C255.47,393.35 250.82,418.88 253.19,427.86 C264.07,469.09 318.02,473.86 359.85,473.86 C366.65,473.86 373.14,473.73 379.06,473.62 C384.11,473.52 388.89,473.43 393.06,473.43 C414.56,473.43 440.06,472.84 465.92,468.5 C472.05,467.5 478.39,466.83 485.09,466.15 C501.38,464.5 518.22,462.79 532.22,455.22 C538,452.1 552.52,443.42 562,430.7 C571.24,418.29 572.85,405.6 566.65,394 Z" id="Path" fill="#EAF3F3" fill-rule="nonzero" blush:i="0.0.0.1"/></g></g><g blush:width="600" blush:height="600" id="Master/Hands/Phone" blush:component="Master/Hands/Phone" blush:i="0.1" transform="scale(1 1)"><g id="Master/Hands/Phone" stroke="none" stroke-width="1" fill="none" fill-rule="evenodd" blush:has-customizable-skin="true" blush:i="0.1.0"><g id="base" transform="translate(170.000000, 85.000000)" fill-rule="nonzero" blush:i="0.1.0.0"><path d="M198.288013,122.311919 C198.42426,121.623109 198.911741,121.056198 199.572366,120.818295 C204.554953,119.02398 209.652357,117.566123 214.801062,116.461038 C215.046695,116.404457 215.298862,116.345414 215.628286,116.267575 C219.869539,115.265428 221.334087,115.012478 223.490284,115.146658 C226.535115,115.336137 229.091077,116.640261 231.245806,119.303232 C234.338077,123.131283 236.386581,128.221341 237.428949,133.918947 C238.028338,137.280738 237.382802,142.079109 235.682449,144.799603 C233.779906,147.885515 230.686981,150.62464 226.220111,153.610507 C225.422484,154.143679 224.589736,154.679595 223.628295,155.282431 C223.251826,155.518482 222.867077,155.757718 222.389478,156.053191 C222.220534,156.157711 221.426201,156.648369 221.211565,156.781238 C219.427163,157.884208 217.9231,158.886568 214.966203,160.911387 C214.642819,161.132861 214.642819,161.132861 214.318992,161.354596 C209.830636,164.427261 207.464215,165.948085 204.519544,167.531216 C199.820058,169.93092 195.373325,172.796302 191.246217,176.084271 C189.789428,177.24486 187.676597,175.959098 188.038013,174.131919 L198.288013,122.311919 Z" id="Path" fill="#b17606" blush:skin="500" blush:i="0.1.0.0.0"/><path d="M211.172231,240.750502 C224.318662,238.467268 248.825546,230.922374 253.53903,226.038954 C258.14643,221.3263 259.856329,214.870655 259.78774,206.104845 C259.768112,203.596308 259.635595,201.35222 259.323201,197.413345 L259.22377,196.162265 C258.468014,187.874612 256.898898,179.705681 254.537294,171.750803 C251.797163,162.128754 247.531266,159.933641 235.751617,160.572939 C223.563209,161.376311 211.472289,163.060752 199.551088,165.614364 C198.516321,165.836019 197.833316,166.825382 197.99286,167.871527 L208.85286,239.081527 C209.021822,240.189427 210.06805,240.942273 211.172231,240.750502 Z" id="Path" fill="#b17606" blush:skin="500" blush:i="0.1.0.0.1"/><path d="M254.567975,193.197239 C251.53808,193.597644 248.03133,194.020023 243.841266,194.494355 C240.734014,194.846109 237.577128,195.191034 232.751264,195.70983 C219.277066,197.158347 216.563979,197.456909 211.536,198.07494 C210.439681,198.209697 209.660182,199.207682 209.79494,200.304 C209.929697,201.400319 210.927682,202.179818 212.024,202.04506 C217.022401,201.430665 219.731723,201.132518 233.178812,199.686914 C238.011601,199.167375 241.17467,198.821773 244.291208,198.468969 C248.503991,197.992065 252.034016,197.566882 255.092025,197.162761 C256.187074,197.018049 256.957474,196.013024 256.812761,194.917975 C256.668049,193.822926 255.663024,193.052526 254.567975,193.197239 Z" id="Path" fill="#744b15" blush:skin="600" blush:i="0.1.0.0.2"/><path d="M183.647477,216.285913 C176.27238,207.093596 168.897472,200.361278 161.188935,196.373611 C150.379212,190.769814 137.952009,187.160317 126.514028,186.743825 C112.868727,186.246957 101.213163,190.223087 92.8931004,199.200513 C91.0737687,201.167704 89.6227038,203.641503 88.2539879,206.962549 L82.4616924,188.122265 C82.0416595,186.756047 80.3655766,186.25868 79.2683185,187.174652 C75.4381812,190.371984 69.8999884,198.143202 63.0203997,209.383434 C58.3912695,216.946748 53.9799311,224.696071 49.5263216,232.818433 C48.3846545,234.904303 47.2115054,237.237315 46.0036188,239.813344 C43.031622,246.151645 39.9095444,253.816177 36.4681973,263.037132 C34.8344444,267.414708 33.1905431,271.971584 31.2494494,277.467067 C30.4469352,279.739087 27.439992,288.315947 26.754578,290.252779 C17.1392054,317.428141 11.3600226,347.211384 4.94812658,394.511341 C3.69030638,403.803944 2.66766035,417.602445 1.85170246,434.734048 C1.30183536,446.27889 0.878169094,483.64485 0.56472179,496.010318 C0.455025022,500.337846 0.36693523,504.35638 0.298470149,507.963066 C0.274501774,509.225701 0.254697173,510.346773 0.238808831,511.313422 C0.233244809,511.651938 0.230128051,511.848552 0.224744726,512.19707 C0.22094827,512.449065 0.22094827,512.449065 0.218194738,512.501586 C0.204363183,513.616318 1.10301649,514.528806 2.21786069,514.529999 L161.147861,514.7 C162.253265,514.7 163.15,513.805405 163.15,512.7 C163.15,470.141163 165.41429,389.746084 169.425958,370.947405 C172.645309,355.902062 178.526908,337.443709 185.166036,320.905071 C188.281494,313.124894 191.992255,304.707226 196.989543,293.89453 C198.49,293.662806 199.98042,293.369297 201.457,293.014714 C208.578424,291.25795 210.671832,290.707762 214.336265,289.521832 C228.537123,284.925971 237.062171,278.399724 238.579722,267.82408 C239.815719,259.225841 235.878203,247.630218 229.754423,241.756611 C225.363541,237.548681 219.265019,236.450175 211.163281,237.408854 C208.747,237.694773 206.393169,238.116367 202.984897,238.825162 C202.471087,238.932015 200.765702,239.290726 200.524895,239.34104 C200.18307,239.412462 199.872039,239.47693 199.58268,239.536226 C193.363043,229.466034 188.907959,222.842574 183.647477,216.285913 Z" id="Path" fill="#b17606" blush:skin="500" blush:i="0.1.0.0.3"/><path d="M186.092337,256.94081 C173.884626,258.215242 166.841252,268.196252 170.391476,279.527942 C170.419872,279.619411 171.697036,284.031565 172.183195,285.500178 C173.505538,289.494772 174.896443,292.230829 176.827447,293.866207 C182.134799,298.368164 187.326545,299.233038 194.598316,297.441961 C195.670831,297.177795 196.326128,296.0942 196.061961,295.021684 C195.797795,293.949169 194.7142,293.293872 193.641684,293.558039 C187.535521,295.06202 183.659597,294.416343 179.413746,290.814804 C178.2142,289.798902 177.083209,287.574124 175.980541,284.243131 C175.523219,282.861632 174.260658,278.499923 174.21003,278.336885 C171.433661,269.475182 176.752794,261.937555 186.507663,260.91919 C187.606262,260.804501 188.403879,259.820937 188.28919,258.722337 C188.174501,257.623738 187.190937,256.826121 186.092337,256.94081 Z" id="Path" fill="#744b15" blush:skin="600" blush:i="0.1.0.0.4"/><path d="M176.232218,262.778741 L176.225599,262.779914 C165.900548,264.591326 135.760604,266.109217 122.3471,265.80954 C120.975512,265.780113 119.592223,265.76465 117.615869,265.752684 C117.27926,265.750645 117.009487,265.749145 116.402385,265.745866 C103.273546,265.674957 97.7082324,265.207538 91.5926127,262.922789 C83.3023441,259.825607 77.9588039,253.654973 75.6493036,243.451343 C73.17576,232.518494 71.4086788,220.741722 69.8144322,205.839536 C69.2198732,200.281907 68.9105938,197.056892 67.8332076,185.473699 C67.612872,183.104827 67.4564712,181.43574 67.2989278,179.778763 C65.8929297,164.948312 64.6236078,148.572835 62.8050456,122.837572 C62.977358,125.276039 61.0885583,98.380368 60.5844093,91.3794013 C59.8823547,81.6301788 59.280397,73.6601097 58.6964108,66.4800061 C57.2447756,48.3934164 57.0303859,30.304287 59.4479415,23.0517982 C62.3907835,13.9973799 70.3051423,7.46219897 79.7033191,6.29212729 C103.592776,2.70870878 133.615969,-0.00115940172 149.541922,0.330439415 C150.966881,0.360314656 152.226429,0.373126052 154.961925,0.391324166 C163.026693,0.444975708 166.783422,0.541236832 171.532576,0.930363541 C186.574746,2.16285895 197.078452,6.02075615 203.117884,14.3142232 C206.410186,18.8444739 208.357339,25.3857318 209.573992,34.2039471 C209.8786,36.4117213 210.132935,38.7189021 210.379545,41.3951015 C210.474079,42.420982 210.56345,43.452888 210.675109,44.7904371 C210.654497,44.5435294 210.880163,47.264582 210.939288,47.958191 C211.013179,48.8250282 211.077597,49.5467287 211.14165,50.2174321 C211.190412,50.7495501 211.190412,50.7495501 211.239167,51.2821836 C213.248386,73.2376938 213.307264,73.8708707 214.137298,82.0732005 C214.702691,87.6603791 215.260653,92.8281824 215.836172,97.7652243 C221.064074,141.992592 224.197849,179.300002 225.36893,215.48458 C225.903372,231.814758 223.467011,242.919485 214.998845,250.190855 C210.981161,253.62205 204.438026,256.373641 195.854463,258.690105 C192.320571,259.643803 188.58983,260.482929 184.542411,261.27158 C183.019046,261.568412 181.520591,261.844984 179.827256,262.145829 C179.132054,262.269341 176.722573,262.691014 176.232218,262.778741 Z" id="Path" fill="#1A4E66" blush:i="0.1.0.0.5"/><path d="M171.79,254.43 C159.933944,255.745924 148.007827,256.327034 136.08,256.17 C118.67,255.79 104.02,258.11 99.29,237.22 C95.08,218.62 93.53,194.53 91.72,175.47 C88.78,144.47 86.42,101.47 83.89,70.31 C83.21,61.91 81.24,33.04 84.49,25.47 C87.74,17.9 95.71,15.55 101.44,14.47 C115.21,11.81 131.99,9.74 147.74,10.07 C162.07,10.37 185.51,8.88 195.07,22.07 C200.69,29.81 201.16,48.71 202.07,57.86 C203.43,72.09 204.7,86.76 206.41,101.2 C210.61,136.74 213.91,177.2 215.08,213.2 C215.41,223.2 214.78,236.06 206.27,243.36 C198.32,250.15 178.66,253.59 171.79,254.43 Z" id="Path" fill="#FFF" blush:i="0.1.0.0.6"/><path d="M76.7881757,12.3375179 C71.8904036,15.6130191 70.3166479,23.9603027 70.5390231,37.137083 C70.5954498,40.4806288 70.7552664,43.7853813 71.0477839,48.3769931 C71.0892379,49.027692 71.2655284,51.7330203 71.3080981,52.4061529 C71.3988993,53.8419415 71.4597356,54.9071252 71.5020519,55.8405736 C71.89653,64.3846251 72.4931522,74.2960025 73.4043509,87.9685221 C73.5325794,89.8925876 73.6679944,91.9067457 73.8229602,94.1976211 C73.9250633,95.707023 74.5346073,104.677899 74.7045316,107.197838 C75.0318729,112.052236 75.2830827,115.857886 75.5040212,119.336762 C77.5619528,152.069005 80.673107,186.986615 84.8415089,225.67425 C85.9837223,236.363885 88.3723137,246.376881 91.9824828,253.376751 C92.4887904,254.358447 93.6950554,254.743825 94.676751,254.237517 C95.6584467,253.73121 96.0438249,252.524945 95.5375172,251.543249 C92.1978287,245.067822 89.9131707,235.490516 88.8186794,225.247505 C84.6560199,186.613159 81.5499789,151.752935 79.4960588,119.084504 C79.274655,115.598295 79.0231302,111.787873 78.6954684,106.928722 C78.5254596,104.40753 77.9158759,95.4360699 77.8138398,93.9276589 C77.6589576,91.6380173 77.5236288,89.6251426 77.3954974,87.702534 C76.4859703,74.055097 75.890723,64.1665599 75.4978717,55.6577583 C75.4543423,54.6975344 75.3922991,53.6112202 75.3001231,52.1536921 C75.2572482,51.4757342 75.0808765,48.7691599 75.0396913,48.122681 C74.7508134,43.5881975 74.5936002,40.3372797 74.5384536,37.0695874 C74.3408123,25.358406 75.75865,17.8381195 79.0118243,15.6624821 C79.9299878,15.0484385 80.1765257,13.8063392 79.5624821,12.8881757 C78.9484385,11.9700122 77.7063392,11.7234743 76.7881757,12.3375179 Z" id="Path" fill="#0D323F" blush:i="0.1.0.0.7"/><path d="M51.2333477,296.359456 C49.7183993,296.324108 48.791554,294.682419 49.5439143,293.367021 C52.1390052,288.829864 55.0915964,284.029122 58.7512059,278.335795 C60.2541149,275.997689 61.8126785,273.605596 63.8856071,270.447472 C64.547735,269.438715 66.9751976,265.746037 66.782301,266.039591 C67.9415576,264.275414 68.8062492,262.956438 69.6448847,261.671681 C71.7856,258.392189 73.5346642,255.672648 75.146124,253.106617 C87.6808035,233.139977 100.731275,217.213471 114.800292,206.242718 C122.85813,199.960527 132.413943,201.578929 138.462049,210.133965 C141.631112,214.607936 141.77772,219.678492 139.67312,225.715111 C138.845954,228.087666 137.829269,230.292249 136.025898,233.830576 C133.697807,238.398435 133.704648,238.384748 133.041039,239.894547 C130.629865,245.382046 129.080954,254.831478 128.738559,263.635919 C128.595668,267.397505 129.033892,271.686435 129.989018,276.567164 C130.730002,280.35362 131.730072,284.289617 133.133681,289.167282 C133.427207,290.187312 133.730879,291.224064 134.115086,292.522178 C134.215955,292.862982 134.874137,295.080426 135.058148,295.70369 C135.44199,297.003799 134.448567,298.301076 133.093348,298.270022 L51.2333477,296.359456 Z" id="Path" fill="#b17606" blush:skin="500" blush:i="0.1.0.0.8"/><path d="M68.2053619,81.3938712 C67.823324,75.7940001 67.5363258,70.238714 67.3488206,64.7813244 C67.3108921,63.6774063 66.3852425,62.813251 65.2813244,62.8511794 C64.1774063,62.8891079 63.313251,63.8147575 63.3511794,64.9186756 C63.540249,70.4215949 63.8295694,76.0218319 64.2146381,81.6661288 C64.28982,82.7681367 65.2441209,83.6005437 66.3461288,83.5253619 C67.4481367,83.45018 68.2805437,82.4958791 68.2053619,81.3938712 Z" id="Path" fill="#0D323F" blush:i="0.1.0.0.9"/><path d="M70.2314934,108.935734 C69.7363296,103.584155 69.3505696,97.901614 69.0576894,91.8138912 C69.00461,90.7105978 68.0671846,89.8592312 66.9638912,89.9123106 C65.8605978,89.96539 65.0092312,90.9028154 65.0623106,92.0061088 C65.3578878,98.1498923 65.747592,103.890535 66.2485066,109.304266 C66.3502741,110.404138 67.3243949,111.213261 68.4242663,111.111493 C69.5241377,111.009726 70.3332609,110.035605 70.2314934,108.935734 Z" id="Path" fill="#0D323F" blush:i="0.1.0.0.10"/><path d="M128.299043,267.779977 C128.953199,274.635526 130.571305,280.016487 133.810201,287.790092 C133.98855,288.218145 134.169496,288.64938 134.414513,289.231108 C134.564421,289.586901 134.564421,289.586901 134.713376,289.940325 C134.861788,290.292607 134.921969,290.435575 135.008986,290.642689 C135.480178,291.7642 135.821522,292.590095 136.143405,293.393678 C136.554127,294.419047 137.718309,294.917316 138.743678,294.506595 C139.769047,294.095873 140.267316,292.931691 139.856595,291.906322 C139.524842,291.0781 139.175836,290.233667 138.69673,289.093319 C138.609074,288.884684 138.548402,288.74055 138.39949,288.387084 C138.25035,288.03322 138.25035,288.03322 138.100878,287.678462 C137.857686,287.101066 137.678532,286.6741 137.502526,286.251674 C134.404226,278.815509 132.889609,273.778698 132.280957,267.400023 C132.176035,266.300448 131.199598,265.494122 130.100023,265.599043 C129.000448,265.703965 128.194122,266.680402 128.299043,267.779977 Z" id="Path" fill="#744b15" blush:skin="600" blush:i="0.1.0.0.11"/><path d="M51.3060857,290.422979 C53.8469498,285.980629 56.7480184,281.263577 60.347445,275.66429 C61.8464418,273.332443 63.4032637,270.943635 65.4765595,267.786066 C66.1393545,266.776649 68.5598219,263.095978 68.3843614,263.362901 C69.5499738,261.589687 70.4205742,260.262114 71.2653047,258.968326 C73.4260423,255.658944 75.193381,252.910917 76.823931,250.313296 C77.411173,249.377763 77.128828,248.143311 76.1932957,247.556069 C75.2577634,246.968827 74.023311,247.251172 73.436069,248.186704 C71.8199126,250.761395 70.0647517,253.490487 67.9159948,256.78152 C67.0739365,258.071215 66.2053851,259.395663 65.041849,261.165718 C65.2180281,260.897702 62.7966249,264.579796 62.1329222,265.590596 C60.0531461,268.758034 58.4899299,271.156653 56.9826996,273.501309 C53.3489543,279.153982 50.4137319,283.926567 47.8339143,288.437021 C47.2855074,289.395835 47.6182078,290.617679 48.5770214,291.166086 C49.5358351,291.714493 50.7576788,291.381792 51.3060857,290.422979 Z" id="Path" fill="#744b15" blush:skin="600" blush:i="0.1.0.0.12"/><path d="M134.373182,348.86945 C136.42131,349.338884 138.427675,349.974816 140.372268,350.770903 C141.394494,351.189387 142.56242,350.699957 142.980903,349.677732 C143.399387,348.655506 142.909957,347.48758 141.887732,347.069097 C139.741574,346.190493 137.527242,345.488644 135.266818,344.97055 C134.190166,344.72378 133.117321,345.396531 132.87055,346.473182 C132.62378,347.549834 133.296531,348.622679 134.373182,348.86945 Z" id="Path" fill="#744b15" blush:skin="600" blush:i="0.1.0.0.13"/></g><g id="Phone/Wear" blush:width="600" blush:height="600" blush:component="Phone/Wear" blush:i="0.1.0.1" transform="scale(1 1)"><g id="Phone/Wear/Bracelet" stroke="none" stroke-width="1" fill="none" fill-rule="evenodd" blush:i="0.1.0.1.0"><g id="clothing" transform="translate(163.000000, 431.000000)" fill-rule="nonzero" blush:i="0.1.0.1.0.0"><path d="M23.11,16.24 C25.23,9.08 20.33,1.09 12.61,0.7 C7.49,0.44 3.18,3.45 1.08,8.32 C-1.02,13.19 1.08,20.82 6.73,23.55 C9.8449447,25.0379051 13.4557733,25.0846122 16.6081623,23.6777768 C19.7605513,22.2709415 22.1372101,19.5521627 23.11,16.24 L23.11,16.24 Z" id="Path" fill="#F97560" blush:i="0.1.0.1.0.0.0"/><path d="M14.6297202,19.0892527 C15.8589299,22.0848057 18.4167894,25.0216074 21.7648719,27.6851377 C22.6292736,28.372803 23.8874724,28.2295298 24.5751377,27.3651281 C25.262803,26.5007264 25.1195298,25.2425276 24.2551281,24.5548623 C21.3934175,22.2782598 19.2540477,19.8219463 18.3302798,17.5707473 C17.9109561,16.548866 16.7426286,16.0603965 15.7207473,16.4797202 C14.698866,16.8990439 14.2103965,18.0673714 14.6297202,19.0892527 Z" id="Path" fill="#0B0B0A" blush:i="0.1.0.1.0.0.1"/><path d="M24.37,21.76 C17.91,25.5 15.97,34.67 21.3,40.26 C24.84,43.98 30.04,44.76 34.92,42.67 C39.8,40.58 43.54,33.67 41.3,27.73 C40.0593474,24.5068676 37.4689262,21.9890542 34.2118341,20.8405108 C30.9547419,19.6919674 27.3579729,20.0280013 24.37,21.76 L24.37,21.76 Z" id="Path" fill="#F97560" blush:i="0.1.0.1.0.0.2"/><path d="M35.8562882,39.3560673 C36.1352635,39.5267345 35.9645081,39.4088172 38.6684159,41.2878047 L38.7260402,41.3278425 C40.4827611,42.5482307 41.3728321,43.1476516 41.8618004,43.4109422 C42.8343419,43.9346184 44.047266,43.5707412 44.5709422,42.5981996 C45.0946184,41.6256581 44.7307412,40.412734 43.7581996,39.8890578 C43.4728842,39.7354264 42.552867,39.1158382 41.0081825,38.042751 L40.9510429,38.0030499 C40.7331448,37.8516292 40.4841767,37.6783513 40.0294805,37.3618572 C39.6676832,37.1101337 39.4133197,36.9335841 39.1810844,36.7732111 C38.5646665,36.3475358 38.1815022,36.0894045 37.9437118,35.9439327 C37.0014768,35.3675066 35.7703588,35.6640533 35.1939327,36.6062882 C34.6175066,37.5485232 34.9140533,38.7796412 35.8562882,39.3560673 Z" id="Path" fill="#0B0B0A" blush:i="0.1.0.1.0.0.3"/><path d="M48.28,34.9 C41.82,38.64 39.87,47.81 45.2,53.4 C48.74,57.11 53.94,57.89 58.82,55.8 C63.7,53.71 67.45,46.8 65.2,40.86 C63.9623699,37.6368781 61.3730683,35.1189553 58.1166177,33.971884 C54.8601671,32.8248127 51.2644315,33.1640818 48.28,34.9 Z" id="Path" fill="#F97560" blush:i="0.1.0.1.0.0.4"/><path d="M61.7125278,51.8318961 C63.8621488,52.4076874 66.1153346,52.9435668 68.5897705,53.4753535 C69.6696824,53.7074398 70.7332671,53.0201414 70.9653535,51.9402295 C71.1974398,50.8603176 70.5101414,49.7967329 69.4302295,49.5646465 C67.0174343,49.0461072 64.8280617,48.5254047 62.7474722,47.9681039 C61.6805154,47.6823119 60.5838959,48.3155711 60.2981039,49.3825278 C60.0123119,50.4494846 60.6455711,51.5461041 61.7125278,51.8318961 Z" id="Path" fill="#0B0B0A" blush:i="0.1.0.1.0.0.5"/><path d="M75.59,41.7 C68.87,44.26 65.93,53.2 70.03,59.16 C70.5160461,59.8582767 71.072277,60.504979 71.69,61.09 C73.6565368,63.3187262 76.4499405,64.6449606 79.42,64.76 C84.3573558,65.0762504 88.9827074,62.3299098 91.0685059,57.8436038 C93.1543043,53.3572977 92.2729475,48.0507476 88.8488931,44.4795646 C85.4248387,40.9083815 80.1600396,39.8046809 75.59,41.7 L75.59,41.7 Z" id="Path" fill="#F97560" blush:i="0.1.0.1.0.0.6"/><path d="M173.977284,36.2848191 C175.056891,39.2968739 175.208608,42.5634394 174.41284,45.6625969 C174.138132,46.732461 174.782733,47.8224522 175.852597,48.0971603 C176.922461,48.3718685 178.012452,47.7272672 178.28716,46.6574031 C179.281871,42.7834562 179.092224,38.7002494 177.742716,34.9351809 C177.370024,33.8953856 176.224976,33.3545918 175.185181,33.7272841 C174.145386,34.0999764 173.604592,35.2450239 173.977284,36.2848191 Z" id="Path" fill="#0B0B0A" blush:i="0.1.0.1.0.0.7"/><path d="M175.34,38.53 C168.62,41.09 165.68,50.02 169.78,55.99 C170.266046,56.6882767 170.822277,57.334979 171.44,57.92 C173.406537,60.1487262 176.19994,61.4749606 179.17,61.59 C184.107356,61.9062504 188.732707,59.1599098 190.818506,54.6736038 C192.904304,50.1872977 192.022948,44.8807476 188.598893,41.3095646 C185.174839,37.7383815 179.91004,36.6346809 175.34,38.53 L175.34,38.53 Z" id="Path" fill="#F97560" blush:i="0.1.0.1.0.0.8"/><path d="M171.622071,53.2335662 C169.412888,54.4065834 167.158189,55.4818012 164.857829,56.4592912 C163.841234,56.8912723 163.36731,58.0655755 163.799291,59.0821709 C164.231272,60.0987662 165.405575,60.5726898 166.422171,60.1407088 C168.828478,59.1181988 171.187112,57.9934166 173.497929,56.7664338 C174.473504,56.2484297 174.844438,55.037645 174.326434,54.0620706 C173.80843,53.0864961 172.597645,52.7155621 171.622071,53.2335662 Z" id="Path" fill="#0B0B0A" blush:i="0.1.0.1.0.0.9"/><path d="M152.56,49.28 C146.1,53.02 144.16,62.19 149.49,67.78 C153.03,71.49 158.23,72.27 163.11,70.18 C167.99,68.09 171.73,61.18 169.49,55.24 C168.247277,52.0186237 165.655988,49.503159 162.399136,48.356624 C159.142284,47.2100891 155.546665,47.5475281 152.56,49.28 L152.56,49.28 Z" id="Path" fill="#F97560" blush:i="0.1.0.1.0.0.10"/><path d="M149.160403,60.0042033 C146.932584,60.1488669 144.664347,60.249732 142.318069,60.3106743 C141.213872,60.3393548 140.341994,61.2577334 140.370674,62.3619305 C140.399355,63.4661276 141.317733,64.3380061 142.421931,64.3093257 C144.818806,64.2470692 147.138703,64.1439067 149.419597,63.9957967 C150.521845,63.9242222 151.357371,62.9726509 151.285797,61.8704028 C151.214222,60.7681547 150.262651,59.9326287 149.160403,60.0042033 Z" id="Path" fill="#0B0B0A" blush:i="0.1.0.1.0.0.11"/><path d="M120.86,59.49 C119.45,66.02 123.86,72.37 130.19,74.05 C137.64,76.05 144.92,68.05 144.56,62.31 C144.2,56.57 140.78,50.97 134.56,49.85 C128.16,48.69 122.21,53.29 120.86,59.49 Z" id="Path" fill="#F97560" blush:i="0.1.0.1.0.0.12"/><path d="M122.604683,59.6889525 C119.983632,59.3255295 117.669691,58.9836152 115.436932,58.6252711 C114.346319,58.4502345 113.320308,59.1924555 113.145271,60.2830682 C112.970234,61.3736809 113.712456,62.3996923 114.803068,62.5747289 C117.066585,62.9380094 119.407919,63.2839713 122.055317,63.6510475 C123.149419,63.8027508 124.159344,63.0387854 124.311048,61.9446831 C124.462751,60.8505807 123.698785,59.8406558 122.604683,59.6889525 Z" id="Path" fill="#0B0B0A" blush:i="0.1.0.1.0.0.13"/><path d="M88.0766101,58.0885313 L95.9866101,59.5085313 C97.0737999,59.7037032 98.1133594,58.9805798 98.3085313,57.8933899 C98.5037032,56.8062001 97.7805798,55.7666406 96.6933899,55.5714687 L88.7833899,54.1514687 C87.6962001,53.9562968 86.6566406,54.6794202 86.4614687,55.7666101 C86.2662968,56.8537999 86.9894202,57.8933594 88.0766101,58.0885313 Z" id="Path" fill="#0B0B0A" blush:i="0.1.0.1.0.0.14"/><path d="M100.86,48.21 C94.4,51.95 92.45,61.12 97.79,66.71 C101.33,70.42 106.53,71.2 111.4,69.11 C116.27,67.02 120.03,60.11 117.78,54.17 C116.54237,50.9468781 113.953068,48.4289553 110.696618,47.281884 C107.440167,46.1348127 103.844431,46.4740818 100.86,48.21 Z" id="Path" fill="#F97560" blush:i="0.1.0.1.0.0.15"/></g></g></g><g id="Phone/Item" blush:width="600" blush:height="600" blush:component="Phone/Item" blush:i="0.1.0.2" transform="scale(1 1)"><g id="Phone/Item/Contact" stroke="none" stroke-width="1" fill="none" fill-rule="evenodd" blush:i="0.1.0.2.0"><g id="items" transform="translate(264.000000, 130.000000)" fill-rule="nonzero" blush:i="0.1.0.2.0.0"><path d="M8.66515785,20.937169 C3.32597039,27.7464186 0.0302518521,40.5368693 0.82707036,49.9880222 C1.60567488,58.9928014 3.98472068,67.7820539 7.85257482,75.9462793 C12.7648097,86.1049271 21.8043682,93.7444932 32.7154008,97.8517746 C43.6972235,101.985704 57.7147162,102.814167 68.8681492,99.3184595 C80.4052105,95.7025147 90.0510089,88.5611892 94.7295445,80.5043286 C100.000081,71.3223753 102.396866,63.0372523 102.199576,53.4588141 C101.891961,38.6341558 97.9243632,25.1227299 90.1162436,16.1842378 C79.3682097,3.84530252 61.9128405,-1.11877579 44.8692279,1.30125463 C29.9530065,2.49784553 18.1445394,8.82802353 8.66515785,20.937169 Z" id="Path" fill="#4E6AF0" blush:i="0.1.0.2.0.0.0"/><path d="M69.7298163,40.7828909 C69.8289865,48.098602 66.6196881,53.7611428 61.0829799,56.7761717 C68.1195589,58.9394381 75.5054129,63.9022136 81.8380002,70.5609728 C85.3438688,74.2946874 88.5236428,78.3216583 91.3425063,82.5977677 L91.3425063,82.5977677 L91.42281,82.7072727 C91.9732399,83.4578589 91.9331159,84.4889419 91.3260217,85.1944838 C86.0382367,91.3397475 78.038899,96.4444795 68.8481492,99.3184595 C57.7039587,102.811271 43.6934182,101.980333 32.6930996,97.8509067 C29.3219186,96.5771449 26.0983273,94.9426479 23.0785162,92.9759067 C22.2590869,92.4422291 21.9457271,91.3942669 22.3376853,90.4983623 L22.3376853,90.4983623 L22.3831497,90.3969609 C27.6850796,77.1474702 35.1137724,65.7718594 43.112861,59.1726284 C43.5853605,58.7856997 44.0723331,58.4318326 44.5726631,58.1101498 C40.0923938,56.1473083 36.3400836,51.902914 34.6744613,46.3650753 C31.5936483,36.1030866 37.3130859,25.6227763 47.1048092,23.5335705 C59.9275795,20.8123394 69.5702892,29.0147018 69.7298163,40.7828909 Z" id="Combined-Shape" fill="#EAF3F3" blush:i="0.1.0.2.0.0.1"/><path d="M55.7036169,114.544656 L55.712474,114.54407 C68.6093427,113.72005 78.9537065,112.777674 95.2256087,110.607553 C96.3731379,110.454511 97.4105094,111.304742 97.4857694,112.459982 C97.517802,112.951684 97.5530732,113.460371 97.5918565,113.992015 C97.669262,115.053095 97.755396,116.139598 97.874071,117.574114 C98.4966005,125.099111 98.5825517,126.374291 98.4874369,128.251221 C98.4381613,129.223593 97.6958292,130.0192 96.7291985,130.135645 C96.6559455,130.144469 96.6559455,130.144469 96.3094577,130.185873 C95.9671437,130.226691 95.5679723,130.274025 95.1157551,130.32733 C93.8242112,130.479572 92.3662507,130.649189 90.7723583,130.831839 C86.2184754,131.353686 81.4870506,131.875535 76.8216693,132.362682 C74.7969071,132.574103 72.8247281,132.774696 70.9167633,132.962803 C64.5979445,133.585776 59.1787052,134.053127 54.9280788,134.325895 C51.9885386,134.514528 48.7130107,134.753255 45.1598763,135.035034 C43.0416571,135.203018 40.8433446,135.384843 38.5818947,135.57845 C34.1317963,135.959432 29.6463227,136.367692 25.3497001,136.775951 C23.8459391,136.918836 22.4733021,137.051505 21.2597868,137.170548 C20.8352269,137.212197 20.4609377,137.249162 20.1404181,137.281017 C19.8167453,137.313264 19.8167453,137.313264 19.7500756,137.319967 C18.6633637,137.429228 17.6899568,136.64648 17.5634595,135.56164 C17.5496685,135.443367 17.5239283,135.221924 17.4878802,134.910688 C17.4278269,134.392193 17.3609171,133.812115 17.2888633,133.184445 C17.0829831,131.390996 16.8770966,129.575236 16.6848879,127.848935 C16.6521837,127.554988 16.6521837,127.554988 16.6195298,127.26057 C16.2964406,124.345107 16.0535247,122.048309 15.9185671,120.594919 C15.8236346,119.572569 16.5182724,118.644411 17.5259086,118.447228 C22.6419885,117.446071 45.2974442,115.255924 55.7036169,114.544656 Z M20.0844884,122.077406 C20.216879,123.363482 20.3896842,124.965548 20.595192,126.819991 C20.6277287,127.113351 20.6277287,127.113351 20.6603222,127.406305 C20.8519738,129.127601 21.0573662,130.939004 21.2627649,132.728258 C21.2790525,132.870142 21.2950765,133.009586 21.3108168,133.146428 C22.4163729,133.0384 23.642914,132.920111 24.97133,132.793886 C29.279573,132.384523 33.7771513,131.975161 38.2406952,131.593029 C40.5101623,131.398736 42.7167453,131.216227 44.8436515,131.047554 C48.4155505,130.764286 51.7106279,130.524135 54.6719212,130.334105 C58.8691763,130.064763 64.2469663,129.600986 70.5243055,128.982102 C72.4243243,128.794779 74.3888916,128.59496 76.4062577,128.384311 C81.0571275,127.898679 85.7755558,127.378264 90.3169633,126.857847 C91.848506,126.682341 93.2539922,126.518927 94.5061035,126.371491 C94.4623297,124.965381 94.290432,122.772167 93.887689,117.9039 C93.7889557,116.710434 93.7124137,115.754011 93.644551,114.851309 C78.466936,116.838666 68.384862,117.742487 55.9719553,118.535647 C46.6880428,119.170376 27.2584564,121.024385 20.0844884,122.077406 Z" id="Path" fill="#EAF3F3" blush:i="0.1.0.2.0.0.2"/><path d="M36.2368828,149.163837 L43.2268828,148.613837 C44.3280488,148.527193 45.1504814,147.564283 45.0638375,146.463117 C44.9771935,145.361951 44.0142832,144.539519 42.9131172,144.626163 L35.9231172,145.176163 C34.8219512,145.262807 33.9995186,146.225717 34.0861625,147.326883 C34.1728065,148.428049 35.1357168,149.250481 36.2368828,149.163837 Z" id="Path" fill="#EAF3F3" blush:i="0.1.0.2.0.0.3"/><path d="M55.4697172,147.643612 L62.4597172,147.083612 C63.5607589,146.995403 64.3818218,146.031325 64.2936124,144.930283 C64.2054031,143.829241 63.2413246,143.008178 62.1402828,143.096388 L55.1502828,143.656388 C54.0492411,143.744597 53.2281782,144.708675 53.3163876,145.809717 C53.4045969,146.910759 54.3686754,147.731822 55.4697172,147.643612 Z" id="Path" fill="#EAF3F3" blush:i="0.1.0.2.0.0.4"/><path d="M75.0668828,146.083837 L82.0568828,145.533837 C83.1580488,145.447193 83.9804814,144.484283 83.8938375,143.383117 C83.8071935,142.281951 82.8442832,141.459519 81.7431172,141.546163 L74.7531172,142.096163 C73.6519512,142.182807 72.8295186,143.145717 72.9161625,144.246883 C73.0028065,145.348049 73.9657168,146.170481 75.0668828,146.083837 Z" id="Path" fill="#EAF3F3" blush:i="0.1.0.2.0.0.5"/></g></g></g><g id="Phone/Effect" blush:width="600" blush:height="600" blush:component="Phone/Effect" blush:i="0.1.0.3" transform="scale(1 1)"><g id="Phone/Effect/Chat" stroke="none" stroke-width="1" fill="none" fill-rule="evenodd" blush:i="0.1.0.3.0"><g id="addons" transform="translate(403.000000, 53.000000)" fill-rule="nonzero" blush:i="0.1.0.3.0.0"><path d="M5.9241671,31.6259021 C6.04288338,29.7213636 6.0667169,29.3173846 6.10202038,28.5201255 C6.14880368,27.4800967 6.13582629,26.5950694 6.05950758,23.9920937 C5.99336567,21.7362143 5.97390453,20.5318491 6.00052467,19.1326144 C6.1167488,13.0235228 7.24097425,8.84210683 10.3470901,6.20917484 C12.2659667,4.64654344 14.4384344,3.42429744 16.7426633,2.60550767 C22.0405939,0.634605139 28.0253717,0.0810472285 36.7110944,0.22024173 C45.4281135,0.355783329 53.3734514,0.319115508 67.5229754,0.14018259 C69.8314091,0.10898754 72.2575779,0.156739877 75.0365455,0.27509919 C76.8890424,0.353999089 78.4453197,0.438942115 81.6343069,0.626576563 C82.6335469,0.685370104 82.8417374,0.697587567 83.2849177,0.723304251 C87.4719198,0.964282785 90.937551,1.56360248 93.3748614,2.81150945 C97.0181292,4.68561839 98.666645,8.22024015 99.2521261,13.3314152 C99.3994155,14.6172324 99.4513122,15.4808065 99.5547635,17.8259989 C99.5662234,18.0846863 99.5708547,18.1875234 99.5778371,18.3370118 C99.6551665,19.9984212 99.7428334,21.1730171 100.036417,24.746464 C100.204249,26.7892884 100.292959,27.939731 100.374968,29.2132343 C100.698402,34.2357571 100.652647,38.0040034 100.082105,41.4028712 C98.7953553,49.0262544 94.7476362,54.5605904 88.1132991,56.4075871 C85.4610842,57.1413666 81.3842903,57.5408435 75.9343348,57.7295896 C73.1596257,57.825685 71.101843,57.851332 66.4764456,57.8760058 C64.4713919,57.8867016 63.5915857,57.8959822 62.8670282,57.9188765 C55.0113854,58.1822992 47.1569576,58.1702821 38.0661189,57.9192741 C36.7949307,57.8850151 35.79626,57.9080539 32.5781119,58.0202108 C29.6433363,58.1224918 28.0214838,58.1561554 26.1735737,58.1267092 C19.1139353,58.0142145 14.1712149,56.8397752 10.944006,53.7318809 C7.05661768,49.9951666 5.66410851,44.7760217 5.68895537,37.4964304 C5.68895537,35.8003627 5.75653201,34.3152341 5.9241671,31.6259021 Z" id="Path" fill="#1FAD66" blush:i="0.1.0.3.0.0.0"/><path d="M16.2204211,48.006099 C15.6924185,53.1581223 13.9868577,58.1197539 11.235558,62.5075188 C8.17810491,66.9743371 4.72926136,71.25996 0.963891575,75.2589609 C-0.479453735,76.7918619 1.12079903,79.2271346 3.10061028,78.5106301 C10.6966216,75.7615923 17.9971293,72.2561222 24.8920845,68.0470618 C30.0147917,64.9680428 37.8293767,58.2694065 43.7061472,52.2921784 C44.980378,50.9961659 44.0051536,48.8098179 42.189513,48.892048 C40.0168403,48.9904481 36.9909348,48.6360491 30.3848089,47.6303495 L30.056842,47.5803967 C23.2199848,46.5387071 20.662496,46.2142328 18.2134542,46.2099999 C17.1865134,46.2082293 16.3251183,46.9845076 16.2204211,48.006099 Z" id="Path" fill="#1FAD66" blush:i="0.1.0.3.0.0.1"/><path d="M37.49,29.03 L37.49,27.36 C37.49,25.7031458 36.1468542,24.36 34.49,24.36 C32.8331458,24.36 31.49,25.7031458 31.49,27.36 L31.49,29.03 C31.49,30.6868542 32.8331458,32.03 34.49,32.03 C36.1468542,32.03 37.49,30.6868542 37.49,29.03 Z" id="Path" fill="#FFF" blush:i="0.1.0.3.0.0.2"/><path d="M56.13,29.03 L56.13,27.36 C56.13,25.7031458 54.7868542,24.36 53.13,24.36 C51.4731458,24.36 50.13,25.7031458 50.13,27.36 L50.13,29.03 C50.13,30.6868542 51.4731458,32.03 53.13,32.03 C54.7868542,32.03 56.13,30.6868542 56.13,29.03 Z" id="Path" fill="#FFF" blush:i="0.1.0.3.0.0.3"/><path d="M74.78,29.03 L74.78,27.36 C74.78,25.7031458 73.4368542,24.36 71.78,24.36 C70.1231458,24.36 68.78,25.7031458 68.78,27.36 L68.78,29.03 C68.78,30.6868542 70.1231458,32.03 71.78,32.03 C73.4368542,32.03 74.78,30.6868542 74.78,29.03 Z" id="Path" fill="#FFF" blush:i="0.1.0.3.0.0.4"/></g></g></g></g></g></g></svg>