<svg viewBox="19.680851063829806 85.19999999999999 239.36170212765958 340.79999999999995" xmlns="http://www.w3.org/2000/svg" xmlns:blush="http://design.blush" overflow="visible" xmlns:xlink="http://www.w3.org/1999/xlink" width="239.36170212765958px" height="340.79999999999995px"><g id="Master/Pose/Sitting" stroke="none" stroke-width="1" fill="none" fill-rule="evenodd" blush:has-customizable-colors="true" blush:i="0"><g id="Head/Front" transform="translate(38.000000, 73.000000) scale(1 1)" blush:width="136" blush:height="104" blush:component="Head/Front" blush:i="0.0" blush:value="Rad"><g id="Head/Front/Rad" stroke="none" stroke-width="1" fill="none" fill-rule="evenodd" blush:i="0.0.0"><g id="Head" transform="translate(54.000000, 31.000000)" fill="#915b3c" blush:color="Skin-500" blush:i="0.0.0.0"><path d="M38.1433414,9.13393292 C43.9381521,19.9350547 43.249578,47.3329958 35.7603014,49.2634576 C32.773664,50.0333035 26.4113241,48.1475566 19.935865,44.2446031 L24,73 L0,73 L8.26160177,34.4893378 C3.65406109,29.0807313 0.535660132,22.452516 1.05677633,15.0254539 C2.55833022,-6.37502057 32.3485306,-1.66718886 38.1433414,9.13393292 Z" id="SKIN" blush:i="0.0.0.0.0"/></g><path d="M95.4066181,38.9017011 C96.181796,38.1335173 96.604637,37.0370644 96.970412,35.9959366 C97.3502694,34.9144095 97.7193579,33.8217377 97.9715531,32.6960301 C98.4754831,30.446804 98.4802693,27.8601542 96.8757008,26.1136308 C95.5888613,24.7130885 93.6580039,24.0849092 91.8759783,23.9483875 C90.6887283,23.8573398 89.4693557,24.0236137 88.3312561,24.397755 C87.2020846,24.7689112 86.2287403,25.5086363 85.1340846,25.9677555 C85.0922975,23.5438969 84.6770959,21.0076965 83.4474146,18.9380781 C82.2641224,16.9467707 80.3775371,15.8293221 78.2290003,15.5336907 C76.0237656,15.230298 73.8461434,15.7463343 71.8719342,16.8139306 C71.3776685,17.0813024 70.888005,17.3614108 70.4194191,17.6784359 C70.027044,17.943917 69.6191137,18.2636287 69.1587196,18.3715924 C68.6454933,18.4920937 68.3910891,18.1956663 68.0575289,17.8212265 C67.6664423,17.3822075 67.2258372,16.9955285 66.7595523,16.6527315 C64.6978111,15.1372602 61.9926962,14.5141557 59.6041137,15.4225429 C58.5035673,15.8410637 57.4333948,16.5518327 56.6867499,17.531267 C56.0211941,18.4043297 55.5464414,19.7892496 54.627862,20.3975277 C54.2380641,20.6557449 53.9627664,20.3136445 53.6078524,20.0608006 C53.074745,19.6808879 52.5663049,19.2616705 52.0267546,18.8921065 C51.2688806,18.3728859 50.448326,17.9845153 49.5696008,17.7812252 C48.2832216,17.4836038 46.505522,17.5533573 46.1377221,19.2381872 C45.9996591,19.8710433 46.1055074,20.5478808 46.1501478,21.1855131 C46.2113557,22.0610635 46.2752329,22.9363153 46.3512596,23.8105721 C46.40897,24.4743744 46.4819593,25.1154894 46.6072285,25.767351 C46.674051,26.1148248 46.8831704,26.7626067 46.7341544,27.110578 C46.5479534,27.5455173 45.6885571,27.2982457 45.3214015,27.3133706 C44.5962024,27.3433218 43.8679659,27.47049 43.1974398,27.7803507 C42.6777706,28.0205574 42.1314092,28.3738025 41.9120731,28.9694434 C41.7772315,29.3353257 41.8127597,29.7111587 41.8764528,30.0875886 C41.9528477,30.5393443 41.8654998,30.778954 41.8084337,31.2347894 C40.8344451,30.7551721 37.4592643,29.6895659 37.0345824,31.4350943 C36.8932059,32.0163069 37.2151688,32.6730443 37.460829,33.1632092 C37.8916777,34.0229382 38.4565395,34.8087345 39.0340112,35.5581116 C40.2385651,37.1214452 41.6766296,38.4698465 43.2238559,39.6230176 C41.4110883,40.428914 40.9379003,42.8060049 42.5074008,44.2222691 C43.2003852,44.8475627 44.1321265,44.9867711 45.0062496,44.9467698 C45.3261876,44.9321425 45.7874102,44.8091535 46.0391451,44.8648767 C46.174631,44.8948279 46.3196892,45.0096574 46.5073629,45.0224936 C47.741002,45.1069739 49.1335978,44.8097505 50.3395323,44.5360104 C52.4883453,44.0482337 54.522658,43.0301912 56.1839244,41.4796939 C56.6100789,41.0819697 56.9621396,40.8530072 57.5357455,40.858878 C58.038387,40.8639528 58.5315481,41.0017682 59.0337294,41.0145049 C60.3624479,41.0484363 61.5604668,40.3988633 62.7942901,39.9665112 C62.8698566,41.6333306 63.3445173,43.4691107 64.0263646,44.9686611 C64.5823904,46.1914862 65.7435005,46.3692033 66.8844533,46.4764704 C70.5329989,46.819765 74.1944304,46.4366682 77.8475782,46.441743 C74.3112318,47.241072 70.6569795,47.5705353 67.1520195,48.5111623 C65.5677002,48.9362505 66.7775005,50.0040458 67.4549298,50.7442685 C68.570387,51.9632129 69.3997776,53.4735099 69.9750402,55.0646055 C71.70497,52.8096081 74.7626979,51.3237895 77.4716786,52.016548 C80.464885,52.781846 82.5725552,56.8296371 80.6585414,59.7396803 C79.5473181,61.428988 77.540618,62.0811481 75.8708838,62.8069425 C77.1734624,64.1612146 77.4885222,66.161378 78.2725362,67.846208 C78.6592047,68.6770803 79.2019765,69.6165133 80.0667112,69.9060748 C80.3866493,70.0132424 80.7618126,70.0223969 81.0141918,70.2832012 C81.3268585,70.6060971 81.4013205,70.9671037 81.8005988,71.244625 C83.3938461,72.3523221 85.8825703,72.2669462 87.294771,70.8214274 C88.571854,69.5141219 88.2395823,67.4453991 87.1729994,66.1199836 C88.8708064,65.4122993 91.9639705,64.502121 91.2892105,61.8570614 C94.96813,61.612775 103.90044,55.6462162 98.9627536,51.2862759 C101.672563,49.7547841 104.162115,46.011978 102.421509,42.7126686 C101.081193,40.1720899 97.9640977,39.0364317 95.4066181,38.9017011" id="hair" fill="#4a312c" transform="translate(70.000000, 43.500000) scale(-1, 1) translate(-70.000000, -43.500000)" blush:color="Hair-500" blush:i="0.0.0.1"/></g></g><g id="Bottom/Sitting" transform="translate(-44.000000, 260.000000) scale(1 1)" blush:width="300" blush:height="239" blush:component="Bottom/Sitting" blush:i="0.1" blush:value="Skinny Jeans 1"><g id="Bottom/Sitting/Skinny Jeans 1" stroke="none" stroke-width="1" fill="none" fill-rule="evenodd" blush:i="0.1.0"><g id="Objects/Seat" transform="translate(10.000000, 42.000000) scale(1 1)" blush:width="232" blush:height="124" blush:component="Objects/Seat" blush:i="0.1.0.0" blush:value="Cube"><g id="Objects/Seat/Cube" stroke="none" stroke-width="1" fill="none" fill-rule="evenodd" blush:i="0.1.0.0.0"><g id="Seat" transform="translate(55.000000, 0.000000)" blush:i="0.1.0.0.0.0"><polygon id="Seat-Stuff" fill="#C5CFD6" points="27.6226415 0 104.877193 0 115 124 0 124" blush:i="0.1.0.0.0.0.0"/><polygon id="Seat-Stuff" fill-opacity=".1" fill="#000" points="27.6226415 0 51.3828011 0 65.6037736 124 0 124" blush:i="0.1.0.0.0.0.1"/></g></g></g><path d="M257.954028,20.756908 L258.24189,20.5887017 C266.50855,15.9575335 280.00938,22.2466943 280.000005,29.2384154 C279.971611,50.4029106 260.656682,150.1511 259.648224,156.456711 C258.639766,162.762321 247.83665,164.42787 247.20755,156.477375 C246.206544,143.826795 244.3468,100.033121 246.20755,79.7626522 C246.975689,71.3947628 247.802939,63.4254961 248.617343,56.3158982 C238.483775,74.6174738 222.808496,100.823961 201.593128,134.933778 L190.076573,129.672175 C199.120166,99.8760987 206.535776,78.8408618 212.323403,66.5664641 C222.233227,45.5497154 231.525307,27.551672 235.436043,21.2120072 C241.587899,11.2392801 252.296386,14.7194928 257.954028,20.756908 Z" id="LegBack" fill="#915b3c" blush:color="Skin-500" blush:i="0.1.0.1"/><path d="M208.819223,123.340112 L213.936922,21.8299349 C217.625361,4.27739957 248.84365,12.4235349 248.830816,21.8299349 C248.801666,43.1853748 235.973522,116.956762 235.964839,123.319261 L208.819223,123.340112 Z" id="LegLower" fill="#56919c" transform="translate(228.825019, 67.419630) rotate(20.000000) translate(-228.825019, -67.419630)" blush:color="Bottom-700" blush:i="0.1.0.2"/><path d="M182.995119,136.879166 C181.876365,139.865652 181.316987,142.100234 181.316987,143.582912 C181.316987,145.386198 181.617402,148.017641 182.21823,151.477241 C184.310168,151.477241 203.110773,151.477241 238.620042,151.477241 C240.085725,146.631749 239.239648,144.015823 236.08181,143.629464 C232.923972,143.243106 230.300703,142.894255 228.212002,142.582912 L201.99698,130.896125 C201.492551,130.671248 200.901331,130.89787 200.676454,131.402299 C200.672607,131.410928 200.668883,131.419612 200.665282,131.428346 L198.9802,135.515936 L198.9802,135.515936 C196.056869,136.879893 193.681358,137.561872 191.853668,137.561872 C190.368714,137.561872 188.31798,136.962147 185.701465,135.762696 L185.701471,135.762684 C184.69737,135.302389 183.510243,135.743231 183.049947,136.747331 C183.030108,136.790609 183.01182,136.834582 182.995119,136.879166 Z" id="shoe" fill="#E4E4E4" transform="translate(210.316987, 140.977241) rotate(30.000000) translate(-210.316987, -140.977241)" blush:i="0.1.0.3"/><path d="M244.678132,151.401924 C243.559377,154.388411 243,156.622993 243,158.105671 C243,159.908957 243.300414,162.5404 243.901243,166 C245.993181,166 264.793785,166 300.303055,166 C301.768738,161.154507 300.922661,158.538582 297.764823,158.152223 C294.606985,157.765865 291.983716,157.417014 289.895014,157.105671 L263.679993,145.418883 C263.175563,145.194006 262.584344,145.420628 262.359467,145.925057 C262.35562,145.933687 262.351895,145.94237 262.348295,145.951105 L260.663213,150.038695 L260.663213,150.038695 C257.739881,151.402652 255.364371,152.084631 253.536681,152.084631 C252.051727,152.084631 250.000992,151.484905 247.384478,150.285455 L247.384483,150.285443 C246.380383,149.825148 245.193255,150.265989 244.73296,151.27009 C244.713121,151.313368 244.694833,151.357341 244.678132,151.401924 Z" id="shoe" fill="#E4E4E4" blush:i="0.1.0.4"/><path d="M282.770373,36.4330278 C282.770373,63 270.1536,124.970293 270.145616,130.820112 L243,130.840963 C246.973277,75.5454811 248.382172,47.5998928 247.226683,47.0041979 C245.49345,46.1106556 176.175838,53.9250306 155.386358,53.9250306 C125.407825,53.9250306 113.006307,35.0203971 112,-4.40536496e-13 L171.386358,-4.40536496e-13 C183.477954,1.29386693 246.548825,14.0152568 269.972097,18.3884129 C280,20.2606358 282.770373,29.1145109 282.770373,36.4330278 Z" id="Leg-and-Butt" fill="#89c5cc" blush:color="Bottom-500" blush:i="0.1.0.5"/></g></g><g id="Body" transform="translate(-22.000000, 155.000000) scale(1 1)" blush:width="256" blush:height="187" blush:component="Body" blush:i="0.2" blush:value="Pointing Forward"><defs blush:i="0.2.0"><path d="M8.50486985,11.3641526 C20.5328809,13.1391664 36.9471722,13.1391664 55.7504485,5 L60.0903301,21.0261575 C46.4526921,30.855406 28.3595972,37.8403661 13.9345776,35.1385465 C2.56686704,33.0093637 -1.08139191,18.2733952 8.50486985,11.3641526 Z" id="bodypointing-forward-path-1" blush:i="0.2.0.0"/><path d="M65.5437498,1.98951966e-13 C67.0746794,19.6687489 74.7801887,41.3453869 81.1040065,62.7603513 C94.0105334,65.9801967 115.654578,62.1842978 146.035933,51.3734208 C153.571674,66.9635189 157.055257,78.0780631 156.486685,84.7170535 C130.420927,98.3327976 108.0808,104.402393 89.6761367,104.801687 C90.2685109,115.717837 88.9396772,126.110233 84.4739328,135.605966 C75.2946804,155.124265 21.5450578,137.048144 3.47278757,140.605966 C-7.84459943,103.85132 14.0379108,88.9143806 14.0555178,65.3966157 C14.0747993,39.6421572 34.7544101,1.98951966e-13 37.7970006,1.98951966e-13 L37.7970006,1.98951966e-13 Z" id="bodypointing-forward-path-3" blush:i="0.2.0.1"/></defs><g id="Body/Pointing Forward" stroke="none" stroke-width="1" fill="none" fill-rule="evenodd" blush:i="0.2.1"><path d="M238.556381,46.4077826 C242.889175,45.5157805 253.464286,37.6506887 255.286431,39.2475996 C257.982176,41.6101262 255.578484,48.864452 252.746364,52.4730906 C247.453134,59.2176317 243.070569,61.5240612 232.238377,64.5443446 C226.574749,66.1235046 220.451364,69.288795 213.868224,74.0402157 L213,58.7398397 L228.246523,50.3642065 C230.385826,42.2239107 232.943102,38.1282526 235.918351,38.0772323 C238.203961,37.0137608 234.223587,47.2997848 238.556381,46.4077826 Z M212.314801,11.541507 C209.515281,16.510379 206.794075,21.8627914 208.22032,23.3935933 C209.646565,24.9243953 213.203036,22.7859324 214.904525,25.3293729 C216.038851,27.0249998 209.962902,29.703613 196.676679,33.3652124 L171.455792,56.4576422 L158.638039,42.7002327 L193.347821,23.6898218 C199.119845,16.8355222 204.806897,11.5121983 210.408976,7.71984988 C212.120791,7.00519513 215.114322,6.57263502 212.314801,11.541507 Z" id="SKIN" fill="#784931" blush:color="Skin-700" blush:i="0.2.1.0"/><g id="Group-3" transform="translate(134.353117, 23.386150)" blush:i="0.2.1.1"><mask id="bodypointing-forward-mask-2" fill="#fff" blush:i="0.2.1.1.0"><use xlink:href="#bodypointing-forward-path-1" blush:i="0.2.1.1.0.0"/></mask><use id="Mask" fill="#191847" transform="translate(31.545165, 20.361910) rotate(-9.000000) translate(-31.545165, -20.361910)" xlink:href="#bodypointing-forward-path-1" blush:color="Top-700" blush:i="0.2.1.1.1"/></g><g id="Group-27" transform="translate(77.000000, -0.000000)" blush:i="0.2.1.2"><mask id="bodypointing-forward-mask-4" fill="#fff" blush:i="0.2.1.2.0"><use xlink:href="#bodypointing-forward-path-3" blush:i="0.2.1.2.0.0"/></mask><use id="Mask" fill="#393f82" xlink:href="#bodypointing-forward-path-3" blush:color="Top-500" blush:i="0.2.1.2.1"/></g></g></g></g></svg>