<svg viewBox="-1.2784090909090935 25.560000000000002 281.25 400.4399999999999" xmlns="http://www.w3.org/2000/svg" xmlns:blush="http://design.blush" overflow="visible" xmlns:xlink="http://www.w3.org/1999/xlink" width="281.25px" height="400.4399999999999px"><g id="Master/Pose/Standing" stroke="none" stroke-width="1" fill="none" fill-rule="evenodd" blush:has-customizable-colors="true" blush:i="0"><g id="Head/Front" transform="translate(82.000000, 0.000000) scale(1 1)" blush:width="136" blush:height="104" blush:component="Head/Front" blush:i="0.0"><g id="Head/Front/Long" stroke="none" stroke-width="1" fill="none" fill-rule="evenodd" blush:i="0.0.0"><path d="M74.5,27 C85.2821207,27 94.2105014,34.9368049 95.7615049,45.2867779 C99.2080531,57.9860871 103.701616,86.5432912 99.1172687,91.0224659 L70.1172687,91.0224659 L70.1089864,90.8685463 C59.3601277,89.6792412 51,80.5659268 51,69.5 L51,48.5 C51,36.6258779 60.6258779,27 72.5,27 L74.5,27 Z" id="Hair-Back" fill="#4a312c" blush:color="Hair-500" blush:i="0.0.0.0"/><g id="Head" transform="translate(54.000000, 31.000000)" fill="#d4a181" blush:color="Skin-500" blush:i="0.0.0.1"><path d="M38.1433414,9.13393292 C43.9381521,19.9350547 43.249578,47.3329958 35.7603014,49.2634576 C32.773664,50.0333035 26.4113241,48.1475566 19.935865,44.2446031 L24,73 L0,73 L8.26160177,34.4893378 C3.65406109,29.0807313 0.535660132,22.452516 1.05677633,15.0254539 C2.55833022,-6.37502057 32.3485306,-1.66718886 38.1433414,9.13393292 Z" id="SKIN" blush:i="0.0.0.1.0"/></g><path d="M73.0014183,28 C84.581449,28 88.2365853,33.3883223 91.3486809,37.9630857 C89.0214598,45.9483908 79.9899431,47.1322506 71.9650913,52.1099145 C71.0199697,51.3410485 69.8137784,50.8804131 68.5,50.8804131 C65.4624339,50.8804131 63,53.3428469 63,56.3804131 C63,59.4179792 65.4624339,61.8804131 68.5,61.8804131 C68.5838976,61.8804131 68.6673564,61.8785346 68.7503367,61.8748173 C69.8557449,73.7527524 69.4127451,87.3172545 66.1172687,90.5371269 L37.1172687,90.5371269 C35.5014749,62.4634848 51.1172687,73.3348557 51.1172687,46.9027926 C52.0907327,45.9516616 53.010584,45.010258 53.9207807,44.19836 L53.888877,43.4207004 C58.9105508,33.1402335 65.2813979,28 73.0014183,28 Z" id="Hair-Front" fill="#4a312c" blush:color="Hair-500" blush:i="0.0.0.2"/></g></g><g id="Bottom/Standing" transform="translate(0.000000, 187.000000) scale(1 1)" blush:width="300" blush:height="239" blush:component="Bottom/Standing" blush:i="0.1"><g id="Bottom/Standing/Skirt" stroke="none" stroke-width="1" fill="none" fill-rule="evenodd" blush:i="0.1.0"><path d="M97.4078252,98.0880741 C121.397173,104.797924 142.094458,108.152849 159.499678,108.152849 C176.904899,108.152849 193.071673,102.986324 208,92.6532736 C184.524241,85.7662231 165.190908,82.3226979 150,82.3226979 C134.809092,82.3226979 117.278368,87.5778233 97.4078252,98.0880741 Z" id="Skirt-Shadow" fill="#191847" blush:color="Bottom-700" blush:i="0.1.0.0"/><path d="M180.266835,117.824327 C180.035521,117.476585 179.840175,117.098311 179.685231,116.688552 C176.478637,108.208488 125.116885,16.7255336 120,0 L177.826087,0 C181.716527,12.7166594 199.227018,92.5197596 201.69132,108.441654 C209.466648,133.556719 225.475271,214.895245 227.518903,220.530129 C229.66877,226.457932 217.572184,232.63317 214.348729,225.345671 C209.219667,213.750031 196.998649,181.665102 191.557135,162.074268 C186.455728,143.707903 182.301821,127.184501 180.266835,117.824327 Z" id="SKIN" fill="#d4a181" blush:color="Skin-500" blush:i="0.1.0.1"/><path d="M180.266835,117.824327 C180.035521,117.476585 179.840175,117.098311 179.685231,116.688552 C176.478637,108.208488 125.116885,16.7255336 120,0 L177.826087,0 C181.716527,12.7166594 199.227018,92.5197596 201.69132,108.441654 C209.466648,133.556719 225.475271,214.895245 227.518903,220.530129 C229.66877,226.457932 217.572184,232.63317 214.348729,225.345671 C209.219667,213.750031 196.998649,181.665102 191.557135,162.074268 C186.455728,143.707903 182.301821,127.184501 180.266835,117.824327 Z" id="Shadow" fill-opacity=".1" fill="#000" blush:i="0.1.0.2"/><path d="M132.957062,128.993595 C109.475313,134.928474 23.5840287,145.657684 17.6897926,147.340533 C11.6264626,149.07166 6.31008232,136.573779 13.8046857,133.866526 C25.7298651,129.558829 58.589132,119.605712 78.5118243,115.544042 C94.5364316,112.27708 109.159082,109.611243 118.976345,108.050159 C118.144649,80.4734403 114.342756,14.2935455 116.834687,1.42108547e-14 L168,1.42108547e-14 C165.610405,13.7065491 145.410112,113.717714 141.6556,123.728549 C140.464101,127.302484 136.908919,128.8819 132.957062,128.993595 L132.957062,128.993595 Z" id="SKIN" fill="#d4a181" blush:color="Skin-500" blush:i="0.1.0.3"/><g id="Left" transform="translate(15.057502, 158.157254) rotate(80.000000) translate(-15.057502, -158.157254) translate(-13.942498, 147.657254)" fill="#E4E4E4" blush:i="0.1.0.4"><path d="M1.67813181,6.40192425 C0.559377268,9.38841089 0,11.6229931 0,13.1056708 C0,14.908957 0.300414205,17.5404001 0.901242614,21 C2.99318117,21 21.7937852,21 57.3030548,21 C58.768738,16.1545073 57.9226607,13.5385816 54.7648228,13.1522232 C51.606985,12.7658647 48.9837155,12.4170139 46.8950143,12.1056708 L20.6799926,0.41888346 C20.1755635,0.194006431 19.584344,0.4206282 19.359467,0.925057349 C19.35562,0.933686736 19.3518954,0.94237021 19.3482945,0.951105155 L17.6632131,5.03869504 L17.6632131,5.03869504 C14.7398812,6.40265216 12.3643706,7.08463071 10.5366811,7.08463071 C9.05172687,7.08463071 7.00099246,6.48490544 4.38447792,5.28545491 L4.38448339,5.28544297 C3.38038273,4.82514778 2.19325534,5.26598921 1.73296014,6.27008987 C1.71312074,6.31336808 1.69483298,6.35734088 1.67813181,6.40192425 Z" id="shoe" blush:i="0.1.0.4.0"/></g><g id="Right" transform="translate(209.000000, 218.000000)" fill="#E4E4E4" blush:i="0.1.0.5"><path d="M1.67813181,6.40192425 C0.559377268,9.38841089 0,11.6229931 0,13.1056708 C0,14.908957 0.300414205,17.5404001 0.901242614,21 C2.99318117,21 21.7937852,21 57.3030548,21 C58.768738,16.1545073 57.9226607,13.5385816 54.7648228,13.1522232 C51.606985,12.7658647 48.9837155,12.4170139 46.8950143,12.1056708 L20.6799926,0.41888346 C20.1755635,0.194006431 19.584344,0.4206282 19.359467,0.925057349 C19.35562,0.933686736 19.3518954,0.94237021 19.3482945,0.951105155 L17.6632131,5.03869504 L17.6632131,5.03869504 C14.7398812,6.40265216 12.3643706,7.08463071 10.5366811,7.08463071 C9.05172687,7.08463071 7.00099246,6.48490544 4.38447792,5.28545491 L4.38448339,5.28544297 C3.38038273,4.82514778 2.19325534,5.26598921 1.73296014,6.27008987 C1.71312074,6.31336808 1.69483298,6.35734088 1.67813181,6.40192425 Z" id="shoe" blush:i="0.1.0.5.0"/></g><path d="M117,3.55271368e-15 C139.546839,-6.45073907 160.880173,-6.45073907 181,3.55271368e-15 C188,31.9374682 205.00894,44.6134741 208,93.5789257 C174,110.472724 132,81.5304571 97,98.005311 C87,74.9611073 101,19.4645181 117,3.55271368e-15 Z" id="Skirt" fill="#393f82" blush:color="Bottom-500" blush:i="0.1.0.6"/></g></g><g id="Body" transform="translate(22.000000, 82.000000) scale(1 1)" blush:width="256" blush:height="187" blush:component="Body" blush:i="0.2"><g id="Body/Long Sleeve" stroke="none" stroke-width="1" fill="none" fill-rule="evenodd" blush:i="0.2.0"><path d="M67.9697919,74.4496834 L89.8671837,74.5318631 C65.8560993,128.56567 53.3363474,156.856914 52.3079281,159.405597 C49.9939846,165.140133 54.8906002,173.873732 56.9845874,178.567103 C50.1645409,181.61887 50.8912241,170.316929 42.2879189,174.319492 C34.4352209,177.972846 28.4616931,184.59248 19.3890352,178.994371 C18.2736052,178.306117 17.0512757,175.714714 20.0045784,173.68967 C27.3623323,168.644547 37.9653015,159.814672 39.3979297,156.908251 C41.3515741,152.944826 50.8755281,125.458637 67.9697919,74.4496834 L67.9697919,74.4496834 Z M253.693154,55.3151968 C249.269111,59.00334 244.780296,63.0831966 245.568527,65.0514942 C246.356757,67.0197919 250.471061,66.2874533 251.152638,69.3148625 C251.607023,71.3331352 244.929759,71.6610844 231.120845,70.2987101 L199.083874,83 L192,65.3107899 L231.482876,59.9251648 C239.381053,55.5320264 246.646993,52.5579486 253.280695,51.0029313 C255.147488,50.9484265 258.117196,51.6270536 253.693154,55.3151968 Z" id="SKIN" fill="#ba8b72" blush:color="Skin-700" blush:i="0.2.0.0"/><path d="M123.473568,9.66927317 L140.652814,9.31280705 C148.188654,47.0006412 173.203746,69.0336905 223.790464,56.4079457 L234.893349,104.819132 C187.489073,115.210412 143.760505,99.6935282 130.595778,48.4746485 C127.187846,35.2156986 124.201379,21.3681777 123.473568,9.66927317 Z" id="Clothes-Back" fill="#56919c" transform="translate(179.183459, 58.591470) rotate(5.000000) translate(-179.183459, -58.591470)" blush:color="Top-700" blush:i="0.2.0.1"/><path d="M119.477154,0 L119.490636,0.016 L145.467604,5.96527657 C145.467604,50.1976331 159.4168,78.578721 166.778942,111.015796 L167,112 L96.8436466,112.000086 C95.8553764,123.350958 95.2484879,135.017596 94.9322404,147 L94.9322404,147 L42.4016357,147 C54.3053653,83.6639633 79.4301113,34.6639633 117.775873,0 L117.775873,0 L119.477154,0 Z" id="Clothes" fill="#89c5cc" blush:color="Top-500" blush:i="0.2.0.2"/><path d="M107.912412,48.2598889 C106.10448,76.1008541 107.167824,97.3475578 111.102445,112 L111.102445,112 L96.8437337,111.999086 C98.758489,90.0075171 102.104834,69.2012293 107.54268,49.5802231 Z" id="Shade" fill-opacity=".1" fill="#000" blush:i="0.2.0.3"/></g></g></g></svg>