<svg viewBox="-50.25 54.50000000000006 461.7567567567567 449.6250000000001" xmlns="http://www.w3.org/2000/svg" xmlns:xlink="http://www.w3.org/1999/xlink" xmlns:blush="http://design.blush" overflow="visible" width="461.7567567567567px" height="449.6250000000001px"><defs><path d="M170,387 C263.888407,387 340,310.980246 340,217.205128 L340,0 L0,0 L0,217.205128 C0,310.980246 76.1115925,387 170,387 Z" id="mastercompositionspace-path-1"/><path d="M170,387 C205.216822,387 237.932549,376.304457 265.068658,357.988177 C310.277694,327.473068 395.38799,374.053861 395.38799,214.5 C395.38799,108.13076 376.925327,36.6307596 340,4.26325641e-14 C34.2812211,-18.1625487 -118.578168,-18.1625487 -118.578168,4.26325641e-14 C-118.578168,27.243823 -118.578168,147.669814 -118.578168,214.5 C-118.578168,281.330186 -7.63531809,486.494026 88.6358482,441.342688 C101.580018,435.271851 118.53617,416.249491 139.504305,384.275609 C152.894574,386.09187 163.059806,387 170,387 Z" id="mastercompositionspace-path-3"/></defs><g id="Master/Composition/Space" stroke="none" stroke-width="1" fill="none" fill-rule="evenodd" blush:has-customizable-colors="true" blush:i="0"><circle id="Oval" fill="#FFA9C4" cx="42" cy="371" r="42" blush:i="0.0"/><ellipse id="Oval" fill="#AED5F8" cx="201" cy="275.5" rx="170" ry="169.5" blush:i="0.1"/><polygon id="Polygon" fill="#7A8DFF" points="71 124 104 157 71 190 38 157" blush:i="0.2"/><g id="Character-And-Mask" transform="translate(31.000000, 58.000000)" blush:i="0.3"><mask id="mastercompositionspace-mask-2" fill="#fff" blush:i="0.3.0"><use xlink:href="#mastercompositionspace-path-1" blush:i="0.3.0.0"/></mask><use id="Mask" fill="#0007E9" opacity=".278" xlink:href="#mastercompositionspace-path-1" blush:i="0.3.1"/><mask id="mastercompositionspace-mask-4" fill="#fff" blush:i="0.3.2"><use xlink:href="#mastercompositionspace-path-3" blush:i="0.3.2.0"/></mask><g id="Mask" opacity=".278" blush:i="0.3.3"/><g mask="url(#mastercompositionspace-mask-4)" blush:i="0.3.4"><g transform="translate(129.459178, 86.342688) rotate(-27.000000) translate(-129.459178, -86.342688) translate(26.459178, 11.342688) scale(1.5147058823529411 1.4423076923076923)" blush:width="206" blush:height="150" id="Head/Front" blush:component="Head/Front" blush:i="0.3.4.0" blush:value="Airy"><g id="Head/Front/Airy" stroke="none" stroke-width="1" fill="none" fill-rule="evenodd" blush:i="0.3.4.0.0"><g id="Head" transform="translate(54.000000, 31.000000)" fill="#d4a181" blush:color="Skin-500" blush:i="0.3.4.0.0.0"><path d="M38.1433414,9.13393292 C43.9381521,19.9350547 43.249578,47.3329958 35.7603014,49.2634576 C32.773664,50.0333035 26.4113241,48.1475566 19.935865,44.2446031 L24,73 L0,73 L8.26160177,34.4893378 C3.65406109,29.0807313 0.535660132,22.452516 1.05677633,15.0254539 C2.55833022,-6.37502057 32.3485306,-1.66718886 38.1433414,9.13393292 Z" id="SKIN" blush:i="0.3.4.0.0.0.0"/></g><path d="M78.46395,27.6852568 C75.3008195,27.1665378 66.7839511,26.8099042 65.2132884,26.8101344 C64.2095609,26.8101344 63.1218259,27.0394482 62.5273474,26.1178184 C62.0405177,25.3631089 62.2188613,24.0866873 62.0735698,23.2108742 C61.9048664,22.1934668 61.6652388,21.1891827 61.4228569,20.1874312 C60.7331241,17.3368945 59.6901472,14.6249591 58.2308058,12.0787928 C55.4925323,7.30188179 51.4810649,3.56010629 46.4167508,1.38277606 C40.824292,-1.02133542 34.4959652,-1.57182675 28.4804855,-1.08418951 C22.0431327,-0.562477519 16.2158664,1.56258942 10.137955,3.56240864 C4.34603603,5.46806184 -1.7203989,6.21816672 -7.77811175,5.28755777 C-13.8815008,4.35004179 -18.4931849,1.0420286 -23.6412768,-2.09768297 C-28.9114778,-5.31199061 -34.9343023,-7.4142643 -41.1646205,-6.93100152 C-46.9804104,-6.47974137 -52.3405866,-4.0783927 -57.1496651,-0.870531642 C-61.6491098,2.13080883 -65.3617312,5.74181098 -67.4577843,10.8240133 C-69.7126711,16.2909379 -69.7106053,22.291777 -66.0025745,27.1232537 C-60.627938,34.1265349 -50.6501101,35.9375616 -42.3489869,35.7575181 C-37.5474828,35.6536822 -32.8318224,34.7771784 -28.298637,33.1828026 C-22.2530892,31.0563543 -17.0287938,27.4522592 -11.3729852,24.5280473 C-8.71871903,23.1558481 -5.97516638,22.0288489 -3.09940537,21.2170411 C-0.308799399,20.4289475 2.43980288,20.0674789 4.96645123,21.7532579 C7.63930914,23.5366564 10.0344377,25.2885128 13.0922147,26.4049212 C16.0255874,27.4759733 19.132713,28.0750442 22.2579713,28.0508696 C28.338637,28.0039017 34.3327705,26.1092997 40.2385356,24.8402457 C45.0544999,23.8055706 50.2074119,22.7743491 55.1172534,23.7689633 C57.1660236,24.1840766 60.1586146,25.0410104 60.8986141,27.1702216 C48.4441749,29.4274433 43.5527072,44.8301494 47.0638027,56.1372093 C48.958789,62.2400423 60.3498117,69.3741897 64.7787912,66.1658382 C67.5846772,64.1332552 65.881216,61.4648419 64.7787912,59.7033156 C62.6675892,56.3299158 61.9452634,51.9966672 65.8518364,49.6480423 C69.2215424,47.6224367 72.7645562,52.4327123 72.8315785,52.4274169 C73.7577255,52.3544325 81.7604403,47.8285457 87.2741651,41.224129 C92.7134751,41.5465656 93.5386971,37.9600245 92.2398964,35.026908 C90.9410957,32.0937915 82.8343998,28.4024381 78.46395,27.6852568 Z" id="hair" fill="#181658" blush:color="Hair-500" blush:i="0.3.4.0.0.1"/></g></g></g><g id="Character-Lower-Body" mask="url(#mastercompositionspace-mask-4)" blush:i="0.3.5"><g transform="translate(-26.540822, 268.342688)" blush:i="0.3.5.0"><polygon id="SKIN" fill="#d4a181" points="201.893333 0 275.843003 179.84314 325.441353 331.885357 345.026667 331.885357 266.188356 7.36933529e-13" blush:color="Skin-500" blush:i="0.3.5.0.0"/><path d="M187.002386,0 C186.214928,63.1981144 174.730895,148.284118 172.896133,152.223566 C171.672959,154.849866 129.44701,188.247837 46.2182876,252.417479 L59.7078008,266.287878 C157.909983,211.27046 209.283232,180.092767 213.827545,172.7548 C220.644016,161.747848 242.836096,60.460441 260.653333,0 L187.002386,0 Z" id="SKIN" fill="#d4a181" blush:color="Skin-500" blush:i="0.3.5.0.1"/><polygon id="Pant" fill="#56919c" points="251.613333 316.225019 344.73206 306.51449 269.693333 4.11460731e-14 192.31707 4.11460731e-14" blush:color="Bottom-700" blush:i="0.3.5.0.2"/><path d="M65.4796702,230.040024 L126.56,299.508545 C190.894595,231.993667 228.401833,187.940197 239.081711,167.348135 C249.76159,146.756073 259.362258,90.9733616 267.883714,0 L173.987073,0 C169.332221,80.0343953 166.194527,121.913789 164.573991,125.638181 C162.953454,129.362573 129.922014,164.163187 65.4796702,230.040024 Z" id="Pant" fill="#89c5cc" blush:color="Bottom-500" blush:i="0.3.5.0.3"/></g></g><g mask="url(#mastercompositionspace-mask-4)" blush:i="0.3.6"><g transform="translate(184.959178, 257.842688) rotate(-14.000000) translate(-184.959178, -257.842688) translate(-7.540822, 122.342688) scale(1.50390625 1.4491978609625669)" blush:width="385" blush:height="271" id="Body" blush:component="Body" blush:i="0.3.6.0" blush:value="Turtle Neck"><g id="Body/Turtle Neck" stroke="none" stroke-width="1" fill="none" fill-rule="evenodd" blush:i="0.3.6.0.0"><path d="M60.9697919,67.4496834 L82.8671837,67.5318631 C66.1894326,121.56567 57.3363474,149.856914 56.3079281,152.405597 C53.9939846,158.140133 58.8906002,166.873732 60.9845874,171.567103 C54.1645409,174.61887 54.8912241,163.316929 46.2879189,167.319492 C38.4352209,170.972846 32.4616931,177.59248 23.3890352,171.994371 C22.2736052,171.306117 21.0512757,168.714714 24.0045784,166.68967 C31.3623323,161.644547 41.9653015,152.814672 43.3979297,149.908251 C45.3515741,145.944826 51.2088615,118.458637 60.9697919,67.4496834 L60.9697919,67.4496834 Z M199.493124,92.4603344 L227.821028,120.095357 C236.063404,123.611168 242.816857,127.493333 248.081387,131.741853 C249.265301,133.169925 250.554184,135.906184 244.983927,134.681747 C239.413671,133.45731 233.49953,132.419902 232.45261,134.23139 C231.405691,136.042878 234.490525,138.818722 232.555688,141.189494 C231.265796,142.770009 226.92779,137.742701 219.54167,126.10757 L190.084396,108.74029 L199.493124,92.4603344 Z" id="SKIN" fill="#d4a181" blush:color="Skin-500" blush:i="0.3.6.0.0.0"/><path d="M122.768272,9.7139848 L131.253224,7.48281413 C149.019938,54.2642227 221.602897,80.8616426 227.451896,98.4190631 C229.596879,104.857833 225.154909,108.596168 227.774893,110.385298 L217.29519,119.561394 C215.205566,117.515062 211.513381,121.915723 202.815928,119.824345 C194.118475,117.732967 127.737533,66.5128914 122.768272,9.7139848 Z" id="Clothes-Back" fill="#191847" transform="translate(175.413267, 63.943241) rotate(5.000000) translate(-175.413267, -63.943241)" blush:color="Top-700" blush:i="0.3.6.0.0.1"/><path d="M112.315629,-4.72097411 L139.249859,-2.83754931 C141.453616,-2.68344757 143.115191,-0.772024866 142.961089,1.43173278 L142.241614,11.6763485 C141.22167,75.4733311 178.098291,91.7368983 169.887262,117.318245 C163.108761,138.436573 98.2273311,161.138686 87,140.43774 C82.4547451,132.057203 80.3928582,121.921313 80.1593383,110.901428 C77.2906083,119.368441 75.0207635,126.656945 73.3511268,132.767479 C70.4711839,143.30749 59.3062598,144.982871 59.3062598,149.043262 L59.3062598,149.043262 L44.5966299,144.982871 C45.5943495,139.466662 38.6598745,136.780597 40.5191881,124.456905 C48.8498993,69.2402236 71.2328417,29.2151944 107.668015,4.38181722 L108.046347,-1.0097438 C108.200449,-3.21350145 110.111872,-4.87507585 112.315629,-4.72097411 Z" id="Clothes-Front" fill="#393f82" blush:color="Top-500" blush:i="0.3.6.0.0.2"/></g></g></g></g><circle id="Oval" fill="#FFEBA9" cx="291" cy="442" r="42" blush:i="0.4"/><polygon id="Polygon" fill="#2026A2" opacity=".399" points="294 82 302 90 294 98 286 90" blush:i="0.5"/></g></svg>