<svg viewBox="24.445945945945937 27.25 359.89864864864865 490.5000000000001" xmlns="http://www.w3.org/2000/svg" xmlns:xlink="http://www.w3.org/1999/xlink" xmlns:blush="http://design.blush" overflow="visible" width="359.89864864864865px" height="490.5000000000001px"><defs><path d="M9.37054227,12.5613422 C22.6202052,14.5162713 40.7027109,14.5090862 61.4205614,5.51255998 L66.1944979,23.208767 C51.1665391,34.0694341 31.2315522,41.7910291 15.3416741,38.8136531 C2.81957441,36.4673167 -1.19301326,20.1955965 9.37054227,12.5613422 Z" id="mastercompositiongraphs-path-1"/><path d="M72.2005369,2.23547676e-13 C73.8869588,21.7221726 82.3751241,45.661868 89.3412215,69.3125591 C103.558254,72.8682786 127.400589,68.6761214 160.867708,56.7365802 C169.168797,73.9542159 173.006182,86.2290697 172.379864,93.5611415 C143.667126,108.59814 119.058312,115.301393 98.7845564,115.742507 C99.4363321,127.798854 97.9724881,139.275853 93.0533166,149.762633 C82.9417964,171.318557 23.7332277,151.355368 3.82549256,155.284611 C-8.64131656,114.692942 15.4636361,98.1966511 15.4830313,72.223735 C15.5042711,43.7806241 38.2841549,2.23547676e-13 41.6357585,2.23547676e-13 L41.6357585,2.23547676e-13 Z" id="mastercompositiongraphs-path-3"/></defs><g id="Master/Composition/Graphs" stroke="none" stroke-width="1" fill="none" fill-rule="evenodd" blush:has-customizable-colors="true" blush:i="0"><g id="Chart" transform="translate(40.000000, 41.000000)" blush:i="0.0"><path d="M48.6606476,47.71305 C46.1847672,50.33105 42.6774315,51.975 38.7765142,51.975 C31.281014,51.975 25.2047342,45.94205 25.2047342,38.5 C25.2047342,31.05795 31.281014,25.025 38.7765142,25.025 L38.7765142,0 C17.453309,0 0,17.32885 0,38.5 C0,59.67115 17.453309,77 38.7765142,77 C49.9771103,77 60.0997193,72.2953 67,64.8109 L48.6606476,47.71305 Z" id="Value" fill="#F2F2F2" blush:i="0.0.0"/><path d="M38,0 L38,25.35 C45.5387,25.35 51.65,31.4613 51.65,39 L77,39 C77,17.5539 59.4461,0 38,0 Z" id="Value" fill="#42A5FF" blush:i="0.0.1"/><path d="M51.2919112,38 C51.2919112,42.4006869 49.2194437,46.3124086 46,48.8380716 L61.8381602,69 C71.0574764,61.7818482 77,50.5928258 77,38 L51.2919112,38 Z" id="Value" fill="#C5CFD6" blush:i="0.0.2"/></g><g id="Circles" transform="translate(24.000000, 112.000000)" blush:i="0.1"><circle id="Oval-2-Copy-17" fill="#C1DEE2" cx="335" cy="20" r="20" blush:i="0.1.0"/><circle id="Oval-2-Copy-6" fill="#89C5CC" cx="64.5" cy="234.5" r="13.5" blush:i="0.1.1"/><circle id="Oval-2-Copy-14" fill="#56919C" cx="140.5" cy="19.5" r="13.5" blush:i="0.1.2"/><circle id="Oval-2-Copy-10" fill="#56919C" cx="113.5" cy="214.5" r="13.5" blush:i="0.1.3"/><circle id="Oval-2-Copy-11" fill="#C1DEE2" cx="162.5" cy="118.5" r="18.5" blush:i="0.1.4"/><circle id="Oval-2-Copy-16" fill="#89C5CC" cx="301" cy="36" r="27" blush:i="0.1.5"/><circle id="Oval-2-Copy-7" fill="#C1DEE2" cx="37.5" cy="187.5" r="13.5" blush:i="0.1.6"/><circle id="Oval-2-Copy-7" fill="#C1DEE2" cx="9.5" cy="247.5" r="9.5" blush:i="0.1.7"/><circle id="Oval-2-Copy-9" fill="#C1DEE2" cx="114" cy="163" r="10" blush:i="0.1.8"/><circle id="Oval-2-Copy-12" fill="#C1DEE2" cx="204" cy="134" r="17" blush:i="0.1.9"/><circle id="Oval-2-Copy-13" fill="#C1DEE2" cx="211" cy="63" r="17" blush:i="0.1.10"/><circle id="Oval-2-Copy-8" fill="#89C5CC" cx="78" cy="136" r="17" blush:i="0.1.11"/><circle id="Oval-2-Copy-15" fill="#89C5CC" cx="262" cy="91" r="20" blush:i="0.1.12"/></g><g id="Head/Front" transform="translate(101.859375, 127.148352) scale(1.1015661764705882 1.1043942307692307)" blush:width="149.813" blush:height="114.857" blush:component="Head/Front" blush:i="0.2" blush:value="Turban 1"><defs blush:i="0.2.0"><path d="M59.5761618,12.9456954 C59.3658913,11.6405875 59.7821901,11.0000348 54.5346912,7.32322248 C49.2871923,3.64641021 40.8148726,-0.690083867 32.2816409,1.19718054 C21.2074934,3.64641021 16.8090436,10.95123 12.5386337,14.5025253 C8.68897397,17.7040264 4.82639368,18.0773849 2.53730321,22.0499243 C0.248212735,26.0224636 -0.969669172,37.4512721 1.02080294,41.9950076 C3.76655586,48.2628548 9.18121558,49.9508389 13.133879,51.7566178 C19.9127597,54.8535575 29.4945554,51.5827766 29.7266676,51.0409656 C31.5221564,46.8498232 41.186894,35.0268608 47,30.0596268 C51.2746625,26.4069756 60.5630562,19.0711556 59.5761618,12.9456954 Z" id="headfrontturban-1-path-1" blush:i="0.2.0.0"/></defs><g id="Head/Front/Turban 1" stroke="none" stroke-width="1" fill="none" fill-rule="evenodd" blush:i="0.2.1"><g id="Head" transform="translate(54.000000, 31.000000)" fill="#b28b67" blush:color="Skin-500" blush:i="0.2.1.0"><path d="M38.1433414,9.13393292 C43.9381521,19.9350547 43.249578,47.3329958 35.7603014,49.2634576 C32.773664,50.0333035 26.4113241,48.1475566 19.935865,44.2446031 L24,73 L0,73 L8.26160177,34.4893378 C3.65406109,29.0807313 0.535660132,22.452516 1.05677633,15.0254539 C2.55833022,-6.37502057 32.3485306,-1.66718886 38.1433414,9.13393292 Z" id="SKIN" blush:i="0.2.1.0.0"/></g><g id="Turban" transform="translate(31.000000, 23.000000)" blush:i="0.2.1.1"><mask id="headfrontturban-1-mask-2" fill="#fff" blush:i="0.2.1.1.0"><use xlink:href="#headfrontturban-1-path-1" blush:i="0.2.1.1.0.0"/></mask><use fill="#5C63AB" xlink:href="#headfrontturban-1-path-1" blush:i="0.2.1.1.1"/><path d="M7.99840897,16.3421428 C10.9512397,28.5681061 18.6184367,40.1207252 31,51 C16.673342,42.3522376 7.67334197,31.1925804 4,17.5210284 L7.99840897,16.3421428 Z M12.4570236,12 C14.25711,23.3796891 18.9826226,33.7873661 26.6335616,43.223031 C17.7122912,36.3009755 11.8344374,26.6221332 9,14.1865041 L12.4570236,12 Z" id="SHade" fill-opacity=".2" fill="#000" mask="url(#headfrontturban-1-mask-2)" blush:i="0.2.1.1.2"/></g></g></g><g id="Bottom/Sitting" transform="translate(11.531250, 333.670330) scale(1.1015633333333332 1.104397489539749)" blush:width="330.469" blush:height="263.951" blush:component="Bottom/Sitting" blush:i="0.3" blush:value="Skinny Jeans 1"><g id="Bottom/Sitting/Skinny Jeans 1" stroke="none" stroke-width="1" fill="none" fill-rule="evenodd" blush:i="0.3.0"><g id="Objects/Seat" transform="translate(10.000000, 42.000000) scale(1 1)" blush:width="232" blush:height="124" blush:component="Objects/Seat" blush:i="0.3.0.0" blush:value="Cube"><g id="Objects/Seat/Cube" stroke="none" stroke-width="1" fill="none" fill-rule="evenodd" blush:i="0.3.0.0.0"><g id="Seat" transform="translate(55.000000, 0.000000)" blush:i="0.3.0.0.0.0"><polygon id="Seat-Stuff" fill="#C5CFD6" points="27.6226415 0 104.877193 0 115 124 0 124" blush:i="0.3.0.0.0.0.0"/><polygon id="Seat-Stuff" fill-opacity=".1" fill="#000" points="27.6226415 0 51.3828011 0 65.6037736 124 0 124" blush:i="0.3.0.0.0.0.1"/></g></g></g><path d="M257.954028,20.756908 L258.24189,20.5887017 C266.50855,15.9575335 280.00938,22.2466943 280.000005,29.2384154 C279.971611,50.4029106 260.656682,150.1511 259.648224,156.456711 C258.639766,162.762321 247.83665,164.42787 247.20755,156.477375 C246.206544,143.826795 244.3468,100.033121 246.20755,79.7626522 C246.975689,71.3947628 247.802939,63.4254961 248.617343,56.3158982 C238.483775,74.6174738 222.808496,100.823961 201.593128,134.933778 L190.076573,129.672175 C199.120166,99.8760987 206.535776,78.8408618 212.323403,66.5664641 C222.233227,45.5497154 231.525307,27.551672 235.436043,21.2120072 C241.587899,11.2392801 252.296386,14.7194928 257.954028,20.756908 Z" id="LegBack" fill="#b28b67" blush:color="Skin-500" blush:i="0.3.0.1"/><path d="M208.819223,123.340112 L213.936922,21.8299349 C217.625361,4.27739957 248.84365,12.4235349 248.830816,21.8299349 C248.801666,43.1853748 235.973522,116.956762 235.964839,123.319261 L208.819223,123.340112 Z" id="LegLower" fill="#19193f" transform="translate(228.825019, 67.419630) rotate(20.000000) translate(-228.825019, -67.419630)" blush:color="Bottom-700" blush:i="0.3.0.2"/><path d="M182.995119,136.879166 C181.876365,139.865652 181.316987,142.100234 181.316987,143.582912 C181.316987,145.386198 181.617402,148.017641 182.21823,151.477241 C184.310168,151.477241 203.110773,151.477241 238.620042,151.477241 C240.085725,146.631749 239.239648,144.015823 236.08181,143.629464 C232.923972,143.243106 230.300703,142.894255 228.212002,142.582912 L201.99698,130.896125 C201.492551,130.671248 200.901331,130.89787 200.676454,131.402299 C200.672607,131.410928 200.668883,131.419612 200.665282,131.428346 L198.9802,135.515936 L198.9802,135.515936 C196.056869,136.879893 193.681358,137.561872 191.853668,137.561872 C190.368714,137.561872 188.31798,136.962147 185.701465,135.762696 L185.701471,135.762684 C184.69737,135.302389 183.510243,135.743231 183.049947,136.747331 C183.030108,136.790609 183.01182,136.834582 182.995119,136.879166 Z" id="shoe" fill="#E4E4E4" transform="translate(210.316987, 140.977241) rotate(30.000000) translate(-210.316987, -140.977241)" blush:i="0.3.0.3"/><path d="M244.678132,151.401924 C243.559377,154.388411 243,156.622993 243,158.105671 C243,159.908957 243.300414,162.5404 243.901243,166 C245.993181,166 264.793785,166 300.303055,166 C301.768738,161.154507 300.922661,158.538582 297.764823,158.152223 C294.606985,157.765865 291.983716,157.417014 289.895014,157.105671 L263.679993,145.418883 C263.175563,145.194006 262.584344,145.420628 262.359467,145.925057 C262.35562,145.933687 262.351895,145.94237 262.348295,145.951105 L260.663213,150.038695 L260.663213,150.038695 C257.739881,151.402652 255.364371,152.084631 253.536681,152.084631 C252.051727,152.084631 250.000992,151.484905 247.384478,150.285455 L247.384483,150.285443 C246.380383,149.825148 245.193255,150.265989 244.73296,151.27009 C244.713121,151.313368 244.694833,151.357341 244.678132,151.401924 Z" id="shoe" fill="#E4E4E4" blush:i="0.3.0.4"/><path d="M282.770373,36.4330278 C282.770373,63 270.1536,124.970293 270.145616,130.820112 L243,130.840963 C246.973277,75.5454811 248.382172,47.5998928 247.226683,47.0041979 C245.49345,46.1106556 176.175838,53.9250306 155.386358,53.9250306 C125.407825,53.9250306 113.006307,35.0203971 112,-4.40536496e-13 L171.386358,-4.40536496e-13 C183.477954,1.29386693 246.548825,14.0152568 269.972097,18.3884129 C280,20.2606358 282.770373,29.1145109 282.770373,36.4330278 Z" id="Leg-and-Butt" fill="#19193f" blush:color="Bottom-500" blush:i="0.3.0.5"/></g></g><g id="Body" transform="translate(35.765625, 217.708791) scale(1.1015625 1.1043957219251337)" blush:width="282" blush:height="206.522" blush:component="Body" blush:i="0.4" blush:value="Turtle Neck"><g id="Body/Turtle Neck" stroke="none" stroke-width="1" fill="none" fill-rule="evenodd" blush:i="0.4.0"><path d="M60.9697919,67.4496834 L82.8671837,67.5318631 C66.1894326,121.56567 57.3363474,149.856914 56.3079281,152.405597 C53.9939846,158.140133 58.8906002,166.873732 60.9845874,171.567103 C54.1645409,174.61887 54.8912241,163.316929 46.2879189,167.319492 C38.4352209,170.972846 32.4616931,177.59248 23.3890352,171.994371 C22.2736052,171.306117 21.0512757,168.714714 24.0045784,166.68967 C31.3623323,161.644547 41.9653015,152.814672 43.3979297,149.908251 C45.3515741,145.944826 51.2088615,118.458637 60.9697919,67.4496834 L60.9697919,67.4496834 Z M199.493124,92.4603344 L227.821028,120.095357 C236.063404,123.611168 242.816857,127.493333 248.081387,131.741853 C249.265301,133.169925 250.554184,135.906184 244.983927,134.681747 C239.413671,133.45731 233.49953,132.419902 232.45261,134.23139 C231.405691,136.042878 234.490525,138.818722 232.555688,141.189494 C231.265796,142.770009 226.92779,137.742701 219.54167,126.10757 L190.084396,108.74029 L199.493124,92.4603344 Z" id="SKIN" fill="#b28b67" blush:color="Skin-500" blush:i="0.4.0.0"/><path d="M122.768272,9.7139848 L131.253224,7.48281413 C149.019938,54.2642227 221.602897,80.8616426 227.451896,98.4190631 C229.596879,104.857833 225.154909,108.596168 227.774893,110.385298 L217.29519,119.561394 C215.205566,117.515062 211.513381,121.915723 202.815928,119.824345 C194.118475,117.732967 127.737533,66.5128914 122.768272,9.7139848 Z" id="Clothes-Back" fill="#191847" transform="translate(175.413267, 63.943241) rotate(5.000000) translate(-175.413267, -63.943241)" blush:color="Top-700" blush:i="0.4.0.1"/><path d="M112.315629,-4.72097411 L139.249859,-2.83754931 C141.453616,-2.68344757 143.115191,-0.772024866 142.961089,1.43173278 L142.241614,11.6763485 C141.22167,75.4733311 178.098291,91.7368983 169.887262,117.318245 C163.108761,138.436573 98.2273311,161.138686 87,140.43774 C82.4547451,132.057203 80.3928582,121.921313 80.1593383,110.901428 C77.2906083,119.368441 75.0207635,126.656945 73.3511268,132.767479 C70.4711839,143.30749 59.3062598,144.982871 59.3062598,149.043262 L59.3062598,149.043262 L44.5966299,144.982871 C45.5943495,139.466662 38.6598745,136.780597 40.5191881,124.456905 C48.8498993,69.2402236 71.2328417,29.2151944 107.668015,4.38181722 L108.046347,-1.0097438 C108.200449,-3.21350145 110.111872,-4.87507585 112.315629,-4.72097411 Z" id="Clothes-Front" fill="#393f82" blush:color="Top-500" blush:i="0.4.0.2"/></g></g><g id="Bars" transform="translate(260.000000, 33.000000)" blush:i="0.5"><rect id="Rectangle" fill="#19193f" x="0" y="0" width="110" height="16" rx="4" blush:color="Bottom-500" blush:i="0.5.0"/><rect id="Rectangle" fill="#C1DEE2" x="0" y="24" width="70" height="16" rx="4" blush:i="0.5.1"/><rect id="Rectangle" fill="#C1DEE2" x="0" y="48" width="86" height="16" rx="4" blush:i="0.5.2"/></g><g id="Graph" transform="translate(24.000000, 426.000000)" blush:i="0.6"><rect id="Value" fill="#42A5FF" x="0" y="32" width="6" height="25" rx="3" blush:i="0.6.0"/><rect id="Value" fill="#42A5FF" x="14" y="16" width="6" height="41" rx="3" blush:i="0.6.1"/><rect id="Value" fill="#42A5FF" x="28" y="8" width="6" height="49" rx="3" blush:i="0.6.2"/><rect id="Value" fill="#42A5FF" x="42" y="16" width="6" height="41" rx="3" blush:i="0.6.3"/><rect id="Value" fill="#19193f" x="56" y="0" width="6" height="57" rx="3" blush:color="Bottom-500" blush:i="0.6.4"/></g><g id="Pie-Chart" transform="translate(353.000000, 465.000000) scale(-1, 1) translate(-353.000000, -465.000000) translate(324.000000, 436.000000)" blush:i="0.7"><path d="M58,29.5164511 C58,13.2853546 44.9471,0 29,0 L29,29.5164511 L48.8186,51 C54.4562,45.7475475 58,38.042278 58,29.5164511 Z" id="Value" fill="#F2F2F2" blush:i="0.7.0"/><path d="M30.1077581,29 L1,29 C1,36.57045 4.06941309,43.66385 8.92167637,48.8186 C14.2585838,54.4562 21.8586195,58 30.1077581,58 C37.7063384,58 44.6616372,54.94195 50,50.10765 L30.1077581,29 Z" id="Value" fill="#AFB9C5" blush:i="0.7.1"/><path d="M0,29 C0,13.0529 13.0529,0 29,0 L29,29 L0,29 Z M43.5,0 L31.9,26.1 L58,14.5 C55.419,7.7343 49.62335,2.581 43.5,0 Z" id="Value" fill="#8991DC" blush:i="0.7.2"/></g><g id="Circles" transform="translate(122.000000, 246.000000)" blush:i="0.8"><circle id="Circle" fill="#89C5CC" cx="14.5" cy="104.5" r="14.5" blush:i="0.8.0"/><circle id="Circle" fill="#C1DEE2" cx="57" cy="21" r="7" blush:i="0.8.1"/><circle id="Circle" fill="#89C5CC" cx="145" cy="15" r="15" blush:i="0.8.2"/></g></g></svg>